<svg width="62" height="62" viewBox="0 0 62 62" fill="none" xmlns="http://www.w3.org/2000/svg">
<path fill-rule="evenodd" clip-rule="evenodd" d="M3.875 31C3.875 38.194 6.7328 45.0933 11.8197 50.1803C16.9067 55.2672 23.806 58.125 31 58.125C38.194 58.125 45.0933 55.2672 50.1803 50.1803C55.2672 45.0933 58.125 38.194 58.125 31C58.125 23.806 55.2672 16.9067 50.1803 11.8197C45.0933 6.7328 38.194 3.875 31 3.875C23.806 3.875 16.9067 6.7328 11.8197 11.8197C6.7328 16.9067 3.875 23.806 3.875 31ZM62 31C62 39.2217 58.7339 47.1067 52.9203 52.9203C47.1067 58.7339 39.2217 62 31 62C22.7783 62 14.8933 58.7339 9.07969 52.9203C3.26606 47.1067 0 39.2217 0 31C0 22.7783 3.26606 14.8933 9.07969 9.07969C14.8933 3.26606 22.7783 0 31 0C39.2217 0 47.1067 3.26606 52.9203 9.07969C58.7339 14.8933 62 22.7783 62 31ZM32.9375 17.4375C32.9375 16.9236 32.7334 16.4308 32.37 16.0675C32.0067 15.7041 31.5139 15.5 31 15.5C30.4861 15.5 29.9933 15.7041 29.63 16.0675C29.2666 16.4308 29.0625 16.9236 29.0625 17.4375V39.8854L20.7467 31.5658C20.3829 31.2019 19.8895 30.9976 19.375 30.9976C18.8605 30.9976 18.3671 31.2019 18.0033 31.5658C17.6394 31.9296 17.4351 32.423 17.4351 32.9375C17.4351 33.452 17.6394 33.9454 18.0033 34.3092L29.6283 45.9342C29.8082 46.1147 30.022 46.2578 30.2574 46.3555C30.4928 46.4532 30.7452 46.5035 31 46.5035C31.2548 46.5035 31.5072 46.4532 31.7426 46.3555C31.978 46.2578 32.1918 46.1147 32.3717 45.9342L43.9967 34.3092C44.3606 33.9454 44.5649 33.452 44.5649 32.9375C44.5649 32.423 44.3606 31.9296 43.9967 31.5658C43.6329 31.2019 43.1395 30.9976 42.625 30.9976C42.1105 30.9976 41.6171 31.2019 41.2533 31.5658L32.9375 39.8854V17.4375Z" fill="url(#paint0_linear_16_83)"/>
<defs>
<linearGradient id="paint0_linear_16_83" x1="53.2614" y1="-2.86784" x2="9.9015" y2="17.8558" gradientUnits="userSpaceOnUse">
<stop stop-color="white"/>
<stop offset="1" stop-color="white"/>
</linearGradient>
</defs>
</svg>
