<svg width="262" height="149" viewBox="0 0 262 149" fill="none" xmlns="http://www.w3.org/2000/svg">
<rect width="262" height="149" rx="16" fill="white"/>
<path d="M60.9432 121.148H59.1705C59.1023 120.769 58.9754 120.436 58.7898 120.148C58.6042 119.86 58.3769 119.616 58.108 119.415C57.839 119.214 57.5379 119.062 57.2045 118.96C56.875 118.858 56.5246 118.807 56.1534 118.807C55.483 118.807 54.8826 118.975 54.3523 119.312C53.8258 119.65 53.4091 120.144 53.1023 120.795C52.7992 121.447 52.6477 122.242 52.6477 123.182C52.6477 124.129 52.7992 124.928 53.1023 125.58C53.4091 126.231 53.8277 126.723 54.358 127.057C54.8883 127.39 55.4848 127.557 56.1477 127.557C56.5152 127.557 56.8636 127.508 57.1932 127.409C57.5265 127.307 57.8277 127.157 58.0966 126.96C58.3655 126.763 58.5928 126.523 58.7784 126.239C58.9678 125.951 59.0985 125.621 59.1705 125.25L60.9432 125.256C60.8485 125.828 60.6648 126.354 60.392 126.835C60.1231 127.312 59.7765 127.725 59.3523 128.074C58.9318 128.419 58.4508 128.686 57.9091 128.875C57.3674 129.064 56.7765 129.159 56.1364 129.159C55.1288 129.159 54.2311 128.92 53.4432 128.443C52.6553 127.962 52.0341 127.275 51.5795 126.381C51.1288 125.487 50.9034 124.42 50.9034 123.182C50.9034 121.939 51.1307 120.873 51.5852 119.983C52.0398 119.089 52.661 118.403 53.4489 117.926C54.2367 117.445 55.1326 117.205 56.1364 117.205C56.7538 117.205 57.3295 117.294 57.8636 117.472C58.4015 117.646 58.8845 117.903 59.3125 118.244C59.7405 118.581 60.0947 118.994 60.375 119.483C60.6553 119.968 60.8447 120.523 60.9432 121.148ZM64.6065 117.364V129H62.9077V117.364H64.6065ZM69.4318 129.193C68.8788 129.193 68.3788 129.091 67.9318 128.886C67.4848 128.678 67.1307 128.377 66.8693 127.983C66.6117 127.589 66.483 127.106 66.483 126.534C66.483 126.042 66.5777 125.636 66.767 125.318C66.9564 125 67.2121 124.748 67.5341 124.562C67.8561 124.377 68.2159 124.237 68.6136 124.142C69.0114 124.047 69.4167 123.975 69.8295 123.926C70.3523 123.866 70.7765 123.816 71.1023 123.778C71.428 123.737 71.6648 123.67 71.8125 123.58C71.9602 123.489 72.0341 123.341 72.0341 123.136V123.097C72.0341 122.6 71.8939 122.216 71.6136 121.943C71.3371 121.67 70.9242 121.534 70.375 121.534C69.803 121.534 69.3523 121.661 69.0227 121.915C68.697 122.165 68.4716 122.443 68.3466 122.75L66.75 122.386C66.9394 121.856 67.2159 121.428 67.5795 121.102C67.947 120.773 68.3693 120.534 68.8466 120.386C69.3239 120.235 69.8258 120.159 70.3523 120.159C70.7008 120.159 71.0701 120.201 71.4602 120.284C71.8542 120.364 72.2216 120.511 72.5625 120.727C72.9072 120.943 73.1894 121.252 73.4091 121.653C73.6288 122.051 73.7386 122.568 73.7386 123.205V129H72.0795V127.807H72.0114C71.9015 128.027 71.7367 128.242 71.517 128.455C71.2973 128.667 71.0152 128.843 70.6705 128.983C70.3258 129.123 69.9129 129.193 69.4318 129.193ZM69.8011 127.83C70.2708 127.83 70.6723 127.737 71.0057 127.551C71.3428 127.366 71.5985 127.123 71.7727 126.824C71.9508 126.521 72.0398 126.197 72.0398 125.852V124.727C71.9792 124.788 71.8617 124.845 71.6875 124.898C71.517 124.947 71.322 124.991 71.1023 125.028C70.8826 125.062 70.6686 125.095 70.4602 125.125C70.2519 125.152 70.0777 125.174 69.9375 125.193C69.608 125.235 69.3068 125.305 69.0341 125.403C68.7652 125.502 68.5492 125.644 68.3864 125.83C68.2273 126.011 68.1477 126.254 68.1477 126.557C68.1477 126.977 68.303 127.295 68.6136 127.511C68.9242 127.723 69.3201 127.83 69.8011 127.83ZM76.0014 129V120.273H77.7003V129H76.0014ZM76.8594 118.926C76.5639 118.926 76.3101 118.828 76.098 118.631C75.8897 118.43 75.7855 118.191 75.7855 117.915C75.7855 117.634 75.8897 117.396 76.098 117.199C76.3101 116.998 76.5639 116.898 76.8594 116.898C77.1548 116.898 77.4067 116.998 77.6151 117.199C77.8272 117.396 77.9332 117.634 77.9332 117.915C77.9332 118.191 77.8272 118.43 77.6151 118.631C77.4067 118.828 77.1548 118.926 76.8594 118.926ZM79.9858 129V120.273H81.6165V121.693H81.7244C81.9063 121.212 82.2036 120.837 82.6165 120.568C83.0294 120.295 83.5237 120.159 84.0994 120.159C84.6828 120.159 85.1714 120.295 85.5653 120.568C85.9631 120.841 86.2566 121.216 86.446 121.693H86.5369C86.7453 121.227 87.0767 120.856 87.5312 120.58C87.9858 120.299 88.5275 120.159 89.1562 120.159C89.9479 120.159 90.5938 120.407 91.0938 120.903C91.5975 121.4 91.8494 122.148 91.8494 123.148V129H90.1506V123.307C90.1506 122.716 89.9896 122.288 89.6676 122.023C89.3456 121.758 88.9612 121.625 88.5142 121.625C87.9612 121.625 87.5312 121.795 87.2244 122.136C86.9176 122.473 86.7642 122.907 86.7642 123.438V129H85.071V123.199C85.071 122.725 84.9233 122.345 84.6278 122.057C84.3324 121.769 83.9479 121.625 83.4744 121.625C83.1525 121.625 82.8551 121.71 82.5824 121.881C82.3134 122.047 82.0956 122.28 81.929 122.58C81.7661 122.879 81.6847 123.225 81.6847 123.619V129H79.9858ZM97.8878 129.176C97.0279 129.176 96.2874 128.992 95.6662 128.625C95.0488 128.254 94.5715 127.733 94.2344 127.062C93.901 126.388 93.7344 125.598 93.7344 124.693C93.7344 123.799 93.901 123.011 94.2344 122.33C94.5715 121.648 95.0412 121.116 95.6435 120.733C96.2495 120.35 96.9579 120.159 97.7685 120.159C98.2609 120.159 98.7382 120.241 99.2003 120.403C99.6624 120.566 100.077 120.822 100.445 121.17C100.812 121.519 101.102 121.972 101.314 122.528C101.526 123.081 101.632 123.754 101.632 124.545V125.148H94.6946V123.875H99.9673C99.9673 123.428 99.8764 123.032 99.6946 122.688C99.5128 122.339 99.2571 122.064 98.9276 121.864C98.6018 121.663 98.2192 121.562 97.7798 121.562C97.3026 121.562 96.8859 121.68 96.5298 121.915C96.1776 122.146 95.9048 122.449 95.7116 122.824C95.5223 123.195 95.4276 123.598 95.4276 124.034V125.028C95.4276 125.612 95.5298 126.108 95.7344 126.517C95.9427 126.926 96.2325 127.239 96.6037 127.455C96.9749 127.667 97.4086 127.773 97.9048 127.773C98.2268 127.773 98.5204 127.727 98.7855 127.636C99.0507 127.542 99.2798 127.402 99.473 127.216C99.6662 127.03 99.8139 126.801 99.9162 126.528L101.524 126.818C101.395 127.292 101.164 127.706 100.831 128.062C100.501 128.415 100.087 128.689 99.5866 128.886C99.0904 129.08 98.5241 129.176 97.8878 129.176ZM106.784 129.17C106.08 129.17 105.451 128.991 104.898 128.631C104.348 128.267 103.917 127.75 103.602 127.08C103.292 126.405 103.136 125.597 103.136 124.653C103.136 123.71 103.294 122.903 103.608 122.233C103.926 121.562 104.362 121.049 104.915 120.693C105.468 120.337 106.095 120.159 106.795 120.159C107.337 120.159 107.773 120.25 108.102 120.432C108.436 120.61 108.693 120.818 108.875 121.057C109.061 121.295 109.205 121.506 109.307 121.688H109.409V117.364H111.108V129H109.449V127.642H109.307C109.205 127.828 109.057 128.04 108.864 128.278C108.674 128.517 108.413 128.725 108.08 128.903C107.746 129.081 107.314 129.17 106.784 129.17ZM107.159 127.722C107.648 127.722 108.061 127.593 108.398 127.335C108.739 127.074 108.996 126.712 109.17 126.25C109.348 125.788 109.438 125.25 109.438 124.636C109.438 124.03 109.35 123.5 109.176 123.045C109.002 122.591 108.746 122.237 108.409 121.983C108.072 121.729 107.655 121.602 107.159 121.602C106.648 121.602 106.222 121.735 105.881 122C105.54 122.265 105.282 122.627 105.108 123.085C104.938 123.544 104.852 124.061 104.852 124.636C104.852 125.22 104.939 125.744 105.114 126.21C105.288 126.676 105.545 127.045 105.886 127.318C106.231 127.587 106.655 127.722 107.159 127.722ZM124.25 120.42C124.189 119.883 123.939 119.466 123.5 119.17C123.061 118.871 122.508 118.722 121.841 118.722C121.364 118.722 120.951 118.797 120.602 118.949C120.254 119.097 119.983 119.301 119.79 119.562C119.6 119.82 119.506 120.114 119.506 120.443C119.506 120.72 119.57 120.958 119.699 121.159C119.831 121.36 120.004 121.528 120.216 121.665C120.432 121.797 120.663 121.909 120.909 122C121.155 122.087 121.392 122.159 121.619 122.216L122.756 122.511C123.127 122.602 123.508 122.725 123.898 122.881C124.288 123.036 124.65 123.241 124.983 123.494C125.316 123.748 125.585 124.062 125.79 124.438C125.998 124.812 126.102 125.261 126.102 125.784C126.102 126.443 125.932 127.028 125.591 127.54C125.254 128.051 124.763 128.455 124.119 128.75C123.479 129.045 122.705 129.193 121.795 129.193C120.924 129.193 120.17 129.055 119.534 128.778C118.898 128.502 118.4 128.11 118.04 127.602C117.68 127.091 117.481 126.485 117.443 125.784H119.205C119.239 126.205 119.375 126.555 119.614 126.835C119.856 127.112 120.165 127.318 120.54 127.455C120.919 127.587 121.333 127.653 121.784 127.653C122.28 127.653 122.722 127.576 123.108 127.42C123.498 127.261 123.805 127.042 124.028 126.761C124.252 126.477 124.364 126.146 124.364 125.767C124.364 125.422 124.265 125.14 124.068 124.92C123.875 124.701 123.612 124.519 123.278 124.375C122.949 124.231 122.576 124.104 122.159 123.994L120.784 123.619C119.852 123.366 119.114 122.992 118.568 122.5C118.027 122.008 117.756 121.356 117.756 120.545C117.756 119.875 117.938 119.29 118.301 118.79C118.665 118.29 119.157 117.902 119.778 117.625C120.4 117.345 121.1 117.205 121.881 117.205C122.669 117.205 123.364 117.343 123.966 117.619C124.572 117.896 125.049 118.277 125.398 118.761C125.746 119.242 125.928 119.795 125.943 120.42H124.25ZM133.592 125.381V120.273H135.297V129H133.626V127.489H133.536C133.335 127.955 133.013 128.343 132.57 128.653C132.13 128.96 131.583 129.114 130.928 129.114C130.367 129.114 129.871 128.991 129.439 128.744C129.011 128.494 128.674 128.125 128.428 127.636C128.185 127.148 128.064 126.544 128.064 125.824V120.273H129.763V125.619C129.763 126.214 129.928 126.687 130.257 127.04C130.587 127.392 131.015 127.568 131.541 127.568C131.859 127.568 132.176 127.489 132.49 127.33C132.808 127.17 133.071 126.93 133.28 126.608C133.492 126.286 133.596 125.877 133.592 125.381ZM141.256 129.176C140.411 129.176 139.684 128.985 139.074 128.602C138.468 128.216 138.002 127.684 137.676 127.006C137.35 126.328 137.188 125.551 137.188 124.676C137.188 123.79 137.354 123.008 137.688 122.33C138.021 121.648 138.491 121.116 139.097 120.733C139.703 120.35 140.417 120.159 141.239 120.159C141.902 120.159 142.492 120.282 143.011 120.528C143.53 120.771 143.949 121.112 144.267 121.551C144.589 121.991 144.78 122.504 144.841 123.091H143.188C143.097 122.682 142.888 122.33 142.562 122.034C142.241 121.739 141.809 121.591 141.267 121.591C140.794 121.591 140.379 121.716 140.023 121.966C139.67 122.212 139.396 122.564 139.199 123.023C139.002 123.477 138.903 124.015 138.903 124.636C138.903 125.273 139 125.822 139.193 126.284C139.386 126.746 139.659 127.104 140.011 127.358C140.367 127.612 140.786 127.739 141.267 127.739C141.589 127.739 141.881 127.68 142.142 127.562C142.407 127.441 142.629 127.269 142.807 127.045C142.989 126.822 143.116 126.553 143.188 126.239H144.841C144.78 126.803 144.597 127.307 144.29 127.75C143.983 128.193 143.572 128.542 143.057 128.795C142.545 129.049 141.945 129.176 141.256 129.176ZM150.334 129.176C149.489 129.176 148.762 128.985 148.152 128.602C147.546 128.216 147.08 127.684 146.754 127.006C146.429 126.328 146.266 125.551 146.266 124.676C146.266 123.79 146.432 123.008 146.766 122.33C147.099 121.648 147.569 121.116 148.175 120.733C148.781 120.35 149.495 120.159 150.317 120.159C150.98 120.159 151.571 120.282 152.089 120.528C152.608 120.771 153.027 121.112 153.345 121.551C153.667 121.991 153.858 122.504 153.919 123.091H152.266C152.175 122.682 151.966 122.33 151.641 122.034C151.319 121.739 150.887 121.591 150.345 121.591C149.872 121.591 149.457 121.716 149.101 121.966C148.749 122.212 148.474 122.564 148.277 123.023C148.08 123.477 147.982 124.015 147.982 124.636C147.982 125.273 148.078 125.822 148.271 126.284C148.464 126.746 148.737 127.104 149.089 127.358C149.446 127.612 149.864 127.739 150.345 127.739C150.667 127.739 150.959 127.68 151.22 127.562C151.485 127.441 151.707 127.269 151.885 127.045C152.067 126.822 152.194 126.553 152.266 126.239H153.919C153.858 126.803 153.675 127.307 153.368 127.75C153.061 128.193 152.65 128.542 152.135 128.795C151.624 129.049 151.023 129.176 150.334 129.176ZM159.497 129.176C158.637 129.176 157.897 128.992 157.276 128.625C156.658 128.254 156.181 127.733 155.844 127.062C155.51 126.388 155.344 125.598 155.344 124.693C155.344 123.799 155.51 123.011 155.844 122.33C156.181 121.648 156.651 121.116 157.253 120.733C157.859 120.35 158.567 120.159 159.378 120.159C159.87 120.159 160.348 120.241 160.81 120.403C161.272 120.566 161.687 120.822 162.054 121.17C162.421 121.519 162.711 121.972 162.923 122.528C163.135 123.081 163.241 123.754 163.241 124.545V125.148H156.304V123.875H161.577C161.577 123.428 161.486 123.032 161.304 122.688C161.122 122.339 160.866 122.064 160.537 121.864C160.211 121.663 159.829 121.562 159.389 121.562C158.912 121.562 158.495 121.68 158.139 121.915C157.787 122.146 157.514 122.449 157.321 122.824C157.132 123.195 157.037 123.598 157.037 124.034V125.028C157.037 125.612 157.139 126.108 157.344 126.517C157.552 126.926 157.842 127.239 158.213 127.455C158.584 127.667 159.018 127.773 159.514 127.773C159.836 127.773 160.13 127.727 160.395 127.636C160.66 127.542 160.889 127.402 161.082 127.216C161.276 127.03 161.423 126.801 161.526 126.528L163.134 126.818C163.005 127.292 162.774 127.706 162.44 128.062C162.111 128.415 161.696 128.689 161.196 128.886C160.7 129.08 160.134 129.176 159.497 129.176ZM171.666 122.403L170.126 122.676C170.062 122.479 169.96 122.292 169.82 122.114C169.683 121.936 169.498 121.79 169.263 121.676C169.028 121.562 168.734 121.506 168.382 121.506C167.901 121.506 167.5 121.614 167.178 121.83C166.856 122.042 166.695 122.316 166.695 122.653C166.695 122.945 166.803 123.18 167.018 123.358C167.234 123.536 167.583 123.682 168.064 123.795L169.45 124.114C170.253 124.299 170.852 124.585 171.246 124.972C171.64 125.358 171.837 125.86 171.837 126.477C171.837 127 171.685 127.466 171.382 127.875C171.083 128.28 170.664 128.598 170.126 128.83C169.592 129.061 168.973 129.176 168.268 129.176C167.291 129.176 166.494 128.968 165.876 128.551C165.259 128.131 164.88 127.534 164.74 126.761L166.382 126.511C166.484 126.939 166.695 127.263 167.013 127.483C167.331 127.699 167.746 127.807 168.257 127.807C168.814 127.807 169.259 127.691 169.592 127.46C169.926 127.225 170.092 126.939 170.092 126.602C170.092 126.33 169.99 126.1 169.786 125.915C169.585 125.729 169.276 125.589 168.859 125.494L167.382 125.17C166.568 124.985 165.965 124.689 165.575 124.284C165.189 123.879 164.996 123.366 164.996 122.744C164.996 122.229 165.14 121.778 165.428 121.392C165.715 121.006 166.113 120.705 166.621 120.489C167.128 120.269 167.71 120.159 168.365 120.159C169.308 120.159 170.051 120.364 170.592 120.773C171.134 121.178 171.492 121.722 171.666 122.403ZM180.244 122.403L178.705 122.676C178.64 122.479 178.538 122.292 178.398 122.114C178.261 121.936 178.076 121.79 177.841 121.676C177.606 121.562 177.313 121.506 176.96 121.506C176.479 121.506 176.078 121.614 175.756 121.83C175.434 122.042 175.273 122.316 175.273 122.653C175.273 122.945 175.381 123.18 175.597 123.358C175.813 123.536 176.161 123.682 176.642 123.795L178.028 124.114C178.831 124.299 179.43 124.585 179.824 124.972C180.218 125.358 180.415 125.86 180.415 126.477C180.415 127 180.263 127.466 179.96 127.875C179.661 128.28 179.242 128.598 178.705 128.83C178.17 129.061 177.551 129.176 176.847 129.176C175.869 129.176 175.072 128.968 174.455 128.551C173.837 128.131 173.458 127.534 173.318 126.761L174.96 126.511C175.063 126.939 175.273 127.263 175.591 127.483C175.909 127.699 176.324 127.807 176.835 127.807C177.392 127.807 177.837 127.691 178.17 127.46C178.504 127.225 178.67 126.939 178.67 126.602C178.67 126.33 178.568 126.1 178.364 125.915C178.163 125.729 177.854 125.589 177.438 125.494L175.96 125.17C175.146 124.985 174.544 124.689 174.153 124.284C173.767 123.879 173.574 123.366 173.574 122.744C173.574 122.229 173.718 121.778 174.006 121.392C174.294 121.006 174.691 120.705 175.199 120.489C175.706 120.269 176.288 120.159 176.943 120.159C177.886 120.159 178.629 120.364 179.17 120.773C179.712 121.178 180.07 121.722 180.244 122.403ZM186.436 120.273V121.636H181.504V120.273H186.436ZM182.857 129V119.261C182.857 118.716 182.976 118.263 183.214 117.903C183.453 117.54 183.769 117.269 184.163 117.091C184.557 116.909 184.985 116.818 185.447 116.818C185.788 116.818 186.08 116.847 186.322 116.903C186.565 116.956 186.745 117.006 186.862 117.051L186.464 118.426C186.385 118.403 186.283 118.377 186.158 118.347C186.033 118.312 185.881 118.295 185.703 118.295C185.29 118.295 184.995 118.398 184.817 118.602C184.643 118.807 184.555 119.102 184.555 119.489V129H182.857ZM193.717 125.381V120.273H195.422V129H193.751V127.489H193.661C193.46 127.955 193.138 128.343 192.695 128.653C192.255 128.96 191.708 129.114 191.053 129.114C190.492 129.114 189.996 128.991 189.564 128.744C189.136 128.494 188.799 128.125 188.553 127.636C188.31 127.148 188.189 126.544 188.189 125.824V120.273H189.888V125.619C189.888 126.214 190.053 126.687 190.382 127.04C190.712 127.392 191.14 127.568 191.666 127.568C191.984 127.568 192.301 127.489 192.615 127.33C192.933 127.17 193.196 126.93 193.405 126.608C193.617 126.286 193.721 125.877 193.717 125.381ZM199.403 117.364V129H197.705V117.364H199.403ZM203.388 117.364V129H201.689V117.364H203.388ZM206.747 132.273C206.493 132.273 206.262 132.252 206.054 132.21C205.846 132.172 205.69 132.131 205.588 132.085L205.997 130.693C206.308 130.777 206.584 130.813 206.827 130.801C207.069 130.79 207.283 130.699 207.469 130.528C207.658 130.358 207.825 130.08 207.969 129.693L208.179 129.114L204.986 120.273H206.804L209.014 127.045H209.105L211.315 120.273H213.139L209.543 130.165C209.376 130.619 209.164 131.004 208.906 131.318C208.649 131.636 208.342 131.875 207.986 132.034C207.63 132.193 207.217 132.273 206.747 132.273Z" fill="#050448"/>
<circle cx="133.5" cy="57.5" r="27.5" fill="#22C03B"/>
<circle cx="134" cy="58" r="31" fill="#22C03B" fill-opacity="0.5"/>
<path d="M118 57.7333L128.667 68L150 46" stroke="white" stroke-width="8" stroke-linecap="round" stroke-linejoin="round"/>
<circle cx="188" cy="49" r="2" stroke="#BD188F" stroke-width="2"/>
<ellipse cx="73" cy="60.5" rx="3" ry="2.5" fill="#C1DD12"/>
<circle cx="109" cy="97" r="3" fill="#DC7311"/>
<circle cx="109" cy="19" r="3" fill="#19D3ED"/>
<circle cx="167.5" cy="91.5" r="1.75" stroke="#D1D516" stroke-width="1.5"/>
<path d="M93.2679 70L95 67L96.7321 70H93.2679Z" stroke="#AB3F3F"/>
<path d="M155.5 19L157.665 22.75H153.335L155.5 19Z" fill="#1725AA"/>
<path d="M145 94L145.674 96.0729H147.853L146.09 97.3541L146.763 99.4271L145 98.1459L143.237 99.4271L143.91 97.3541L142.147 96.0729H144.326L145 94Z" fill="#19C271"/>
<path d="M103.5 32L104.061 33.7275H105.878L104.408 34.7951L104.969 36.5225L103.5 35.4549L102.031 36.5225L102.592 34.7951L101.122 33.7275H102.939L103.5 32Z" fill="#C4234A"/>
<path d="M172.5 64L175 66.5L172.5 69L170 66.5L172.5 64Z" fill="#BF1111"/>
</svg>
