<svg width="538" height="362" viewBox="0 0 538 362" fill="none" xmlns="http://www.w3.org/2000/svg">
<g filter="url(#filter0_d_7_86)">
<rect x="14" y="10" width="510" height="334" rx="20" fill="white"/>
<path d="M51.3381 73.4545V88H49.321L41.9276 77.3324H41.7926V88H39.598V73.4545H41.6293L49.0298 84.1364H49.1648V73.4545H51.3381ZM58.9641 88.2202C57.9414 88.2202 57.0489 87.9858 56.2866 87.517C55.5243 87.0483 54.9324 86.3925 54.511 85.5497C54.0896 84.7069 53.8789 83.7221 53.8789 82.5952C53.8789 81.4635 54.0896 80.474 54.511 79.6264C54.9324 78.7789 55.5243 78.1207 56.2866 77.652C57.0489 77.1832 57.9414 76.9489 58.9641 76.9489C59.9869 76.9489 60.8794 77.1832 61.6417 77.652C62.404 78.1207 62.9959 78.7789 63.4173 79.6264C63.8387 80.474 64.0494 81.4635 64.0494 82.5952C64.0494 83.7221 63.8387 84.7069 63.4173 85.5497C62.9959 86.3925 62.404 87.0483 61.6417 87.517C60.8794 87.9858 59.9869 88.2202 58.9641 88.2202ZM58.9712 86.4375C59.6341 86.4375 60.1834 86.2623 60.619 85.9119C61.0546 85.5616 61.3765 85.0952 61.5849 84.5128C61.7979 83.9304 61.9045 83.2888 61.9045 82.5881C61.9045 81.892 61.7979 81.2528 61.5849 80.6705C61.3765 80.0833 61.0546 79.6122 60.619 79.2571C60.1834 78.902 59.6341 78.7244 58.9712 78.7244C58.3036 78.7244 57.7496 78.902 57.3093 79.2571C56.8737 79.6122 56.5494 80.0833 56.3363 80.6705C56.128 81.2528 56.0238 81.892 56.0238 82.5881C56.0238 83.2888 56.128 83.9304 56.3363 84.5128C56.5494 85.0952 56.8737 85.5616 57.3093 85.9119C57.7496 86.2623 58.3036 86.4375 58.9712 86.4375ZM70.5036 88.2131C69.6229 88.2131 68.8369 87.9882 68.1456 87.5384C67.459 87.0838 66.9193 86.4375 66.5263 85.5994C66.138 84.7566 65.9439 83.7457 65.9439 82.5668C65.9439 81.3878 66.1404 80.3793 66.5334 79.5412C66.9311 78.7031 67.4756 78.0616 68.1669 77.6165C68.8582 77.1714 69.6418 76.9489 70.5178 76.9489C71.1948 76.9489 71.7393 77.0625 72.1513 77.2898C72.5679 77.5123 72.8899 77.7727 73.1172 78.071C73.3492 78.3693 73.5291 78.6321 73.657 78.8594H73.7848V73.4545H75.9084V88H73.8345V86.3026H73.657C73.5291 86.5346 73.3445 86.7997 73.103 87.098C72.8662 87.3963 72.5395 87.6567 72.1229 87.8793C71.7062 88.1018 71.1664 88.2131 70.5036 88.2131ZM70.9723 86.402C71.5831 86.402 72.0992 86.241 72.5206 85.919C72.9467 85.5923 73.2687 85.1402 73.4865 84.5625C73.709 83.9848 73.8203 83.3125 73.8203 82.5455C73.8203 81.7879 73.7114 81.125 73.4936 80.5568C73.2758 79.9886 72.9562 79.5459 72.5348 79.2287C72.1134 78.9115 71.5926 78.7528 70.9723 78.7528C70.3331 78.7528 69.8004 78.9186 69.3743 79.25C68.9482 79.5814 68.6262 80.0336 68.4084 80.6065C68.1953 81.1795 68.0888 81.8258 68.0888 82.5455C68.0888 83.2746 68.1977 83.9304 68.4155 84.5128C68.6333 85.0952 68.9553 85.5568 69.3814 85.8977C69.8123 86.2339 70.3426 86.402 70.9723 86.402ZM83.641 88.2202C82.5662 88.2202 81.6405 87.9905 80.864 87.5312C80.0922 87.0672 79.4956 86.4162 79.0742 85.5781C78.6576 84.7353 78.4492 83.7481 78.4492 82.6165C78.4492 81.4991 78.6576 80.5142 79.0742 79.6619C79.4956 78.8097 80.0827 78.1444 80.8356 77.6662C81.5932 77.188 82.4786 76.9489 83.4918 76.9489C84.1074 76.9489 84.704 77.0507 85.2816 77.2543C85.8593 77.4579 86.3777 77.7775 86.837 78.2131C87.2963 78.6487 87.6585 79.2145 87.9237 79.9105C88.1888 80.6018 88.3214 81.4422 88.3214 82.4318V83.1847H79.6495V81.5938H86.2404C86.2404 81.035 86.1268 80.5402 85.8995 80.1094C85.6722 79.6738 85.3526 79.3305 84.9407 79.0795C84.5335 78.8286 84.0553 78.7031 83.506 78.7031C82.9094 78.7031 82.3886 78.8499 81.9435 79.1435C81.5032 79.4323 81.1623 79.8111 80.9208 80.2798C80.6841 80.7438 80.5657 81.2481 80.5657 81.7926V83.0355C80.5657 83.7647 80.6935 84.3849 80.9492 84.8963C81.2096 85.4077 81.5719 85.7983 82.0359 86.0682C82.4999 86.3333 83.042 86.4659 83.6623 86.4659C84.0647 86.4659 84.4317 86.4091 84.7631 86.2955C85.0946 86.1771 85.381 86.0019 85.6225 85.7699C85.864 85.5379 86.0487 85.2514 86.1765 84.9105L88.1864 85.2727C88.0254 85.8646 87.7366 86.383 87.32 86.8281C86.908 87.2685 86.3896 87.6117 85.7646 87.858C85.1443 88.0994 84.4364 88.2202 83.641 88.2202ZM107.881 73.4545V88H105.864L98.4705 77.3324H98.3356V88H96.141V73.4545H98.1722L105.573 84.1364H105.708V73.4545H107.881ZM114.087 88.2415C113.395 88.2415 112.77 88.1136 112.212 87.858C111.653 87.5975 111.21 87.2211 110.884 86.7287C110.562 86.2363 110.401 85.6326 110.401 84.9176C110.401 84.3021 110.519 83.7955 110.756 83.3977C110.992 83 111.312 82.6851 111.714 82.4531C112.117 82.2211 112.567 82.0459 113.064 81.9276C113.561 81.8092 114.068 81.7192 114.584 81.6577C115.237 81.5819 115.768 81.5204 116.175 81.473C116.582 81.4209 116.878 81.3381 117.062 81.2244C117.247 81.1108 117.339 80.9261 117.339 80.6705V80.6207C117.339 80.0005 117.164 79.5199 116.814 79.179C116.468 78.8381 115.952 78.6676 115.266 78.6676C114.551 78.6676 113.987 78.8262 113.575 79.1435C113.168 79.456 112.886 79.804 112.73 80.1875L110.734 79.733C110.971 79.0701 111.317 78.535 111.771 78.1278C112.231 77.7159 112.759 77.4176 113.355 77.233C113.952 77.0436 114.579 76.9489 115.237 76.9489C115.673 76.9489 116.134 77.0009 116.622 77.1051C117.115 77.2045 117.574 77.3892 118 77.6591C118.431 77.929 118.784 78.3149 119.058 78.8168C119.333 79.3139 119.47 79.9602 119.47 80.7557V88H117.396V86.5085H117.311C117.174 86.7831 116.968 87.053 116.693 87.3182C116.419 87.5833 116.066 87.8035 115.635 87.9787C115.204 88.1539 114.688 88.2415 114.087 88.2415ZM114.548 86.5369C115.135 86.5369 115.637 86.4209 116.054 86.1889C116.475 85.9569 116.795 85.6539 117.013 85.2798C117.235 84.901 117.347 84.4962 117.347 84.0653V82.6591C117.271 82.7348 117.124 82.8059 116.906 82.8722C116.693 82.9337 116.449 82.9882 116.175 83.0355C115.9 83.0781 115.633 83.1184 115.372 83.1562C115.112 83.1894 114.894 83.2178 114.719 83.2415C114.307 83.2936 113.93 83.3812 113.589 83.5043C113.253 83.6274 112.983 83.8049 112.78 84.0369C112.581 84.2642 112.482 84.5672 112.482 84.946C112.482 85.4716 112.676 85.8693 113.064 86.1392C113.452 86.4044 113.947 86.5369 114.548 86.5369ZM122.299 88V77.0909H124.337V78.8665H124.472C124.699 78.2652 125.071 77.7964 125.587 77.4602C126.103 77.1193 126.721 76.9489 127.441 76.9489C128.17 76.9489 128.781 77.1193 129.273 77.4602C129.77 77.8011 130.137 78.2699 130.374 78.8665H130.488C130.748 78.2841 131.162 77.8201 131.73 77.4744C132.299 77.1241 132.976 76.9489 133.762 76.9489C134.751 76.9489 135.559 77.259 136.184 77.8793C136.813 78.4995 137.128 79.4347 137.128 80.6847V88H135.005V80.8835C135.005 80.1449 134.803 79.6098 134.401 79.2784C133.998 78.947 133.518 78.7812 132.959 78.7812C132.268 78.7812 131.73 78.9943 131.347 79.4205C130.963 79.8419 130.772 80.384 130.772 81.0469V88H128.655V80.7486C128.655 80.1567 128.471 79.6809 128.101 79.321C127.732 78.9612 127.251 78.7812 126.659 78.7812C126.257 78.7812 125.885 78.8878 125.544 79.1009C125.208 79.3092 124.936 79.6004 124.728 79.9744C124.524 80.3485 124.422 80.7817 124.422 81.2741V88H122.299ZM144.676 88.2202C143.601 88.2202 142.676 87.9905 141.899 87.5312C141.127 87.0672 140.531 86.4162 140.109 85.5781C139.693 84.7353 139.484 83.7481 139.484 82.6165C139.484 81.4991 139.693 80.5142 140.109 79.6619C140.531 78.8097 141.118 78.1444 141.871 77.6662C142.628 77.188 143.514 76.9489 144.527 76.9489C145.143 76.9489 145.739 77.0507 146.317 77.2543C146.894 77.4579 147.413 77.7775 147.872 78.2131C148.331 78.6487 148.694 79.2145 148.959 79.9105C149.224 80.6018 149.357 81.4422 149.357 82.4318V83.1847H140.685V81.5938H147.276C147.276 81.035 147.162 80.5402 146.935 80.1094C146.707 79.6738 146.388 79.3305 145.976 79.0795C145.569 78.8286 145.09 78.7031 144.541 78.7031C143.945 78.7031 143.424 78.8499 142.979 79.1435C142.538 79.4323 142.197 79.8111 141.956 80.2798C141.719 80.7438 141.601 81.2481 141.601 81.7926V83.0355C141.601 83.7647 141.729 84.3849 141.984 84.8963C142.245 85.4077 142.607 85.7983 143.071 86.0682C143.535 86.3333 144.077 86.4659 144.697 86.4659C145.1 86.4659 145.467 86.4091 145.798 86.2955C146.13 86.1771 146.416 86.0019 146.658 85.7699C146.899 85.5379 147.084 85.2514 147.212 84.9105L149.222 85.2727C149.061 85.8646 148.772 86.383 148.355 86.8281C147.943 87.2685 147.425 87.6117 146.8 87.858C146.179 88.0994 145.472 88.2202 144.676 88.2202ZM153.112 88.1349C152.724 88.1349 152.39 87.9976 152.11 87.723C151.831 87.4437 151.691 87.1075 151.691 86.7145C151.691 86.3262 151.831 85.9948 152.11 85.7202C152.39 85.4408 152.724 85.3011 153.112 85.3011C153.5 85.3011 153.834 85.4408 154.113 85.7202C154.393 85.9948 154.532 86.3262 154.532 86.7145C154.532 86.9749 154.466 87.214 154.333 87.4318C154.206 87.6449 154.035 87.8153 153.822 87.9432C153.609 88.071 153.372 88.1349 153.112 88.1349ZM153.112 80.1946C152.724 80.1946 152.39 80.0549 152.11 79.7756C151.831 79.4962 151.691 79.1624 151.691 78.7741C151.691 78.3859 151.831 78.0545 152.11 77.7798C152.39 77.5005 152.724 77.3608 153.112 77.3608C153.5 77.3608 153.834 77.5005 154.113 77.7798C154.393 78.0545 154.532 78.3859 154.532 78.7741C154.532 79.0346 154.466 79.2737 154.333 79.4915C154.206 79.7045 154.035 79.875 153.822 80.0028C153.609 80.1307 153.372 80.1946 153.112 80.1946Z" fill="url(#paint0_linear_7_86)"/>
<path d="M40.8267 149H38.4972L43.7315 134.455H46.267L51.5014 149H49.1719L45.0597 137.097H44.946L40.8267 149ZM41.2173 143.304H48.7741V145.151H41.2173V143.304ZM53.4315 149V138.091H55.4698V139.866H55.6048C55.832 139.265 56.2037 138.796 56.7198 138.46C57.2359 138.119 57.8538 137.949 58.5735 137.949C59.3027 137.949 59.9135 138.119 60.4059 138.46C60.9031 138.801 61.27 139.27 61.5067 139.866H61.6204C61.8808 139.284 62.2951 138.82 62.8633 138.474C63.4315 138.124 64.1085 137.949 64.8945 137.949C65.8841 137.949 66.6914 138.259 67.3164 138.879C67.9461 139.5 68.261 140.435 68.261 141.685V149H66.1374V141.884C66.1374 141.145 65.9362 140.61 65.5337 140.278C65.1313 139.947 64.6507 139.781 64.092 139.781C63.4007 139.781 62.8633 139.994 62.4798 140.42C62.0962 140.842 61.9045 141.384 61.9045 142.047V149H59.788V141.749C59.788 141.157 59.6033 140.681 59.234 140.321C58.8647 139.961 58.3841 139.781 57.7923 139.781C57.3898 139.781 57.0181 139.888 56.6772 140.101C56.341 140.309 56.0688 140.6 55.8604 140.974C55.6568 141.348 55.555 141.782 55.555 142.274V149H53.4315ZM75.7024 149.22C74.6797 149.22 73.7872 148.986 73.0249 148.517C72.2625 148.048 71.6707 147.393 71.2493 146.55C70.8279 145.707 70.6172 144.722 70.6172 143.595C70.6172 142.464 70.8279 141.474 71.2493 140.626C71.6707 139.779 72.2625 139.121 73.0249 138.652C73.7872 138.183 74.6797 137.949 75.7024 137.949C76.7251 137.949 77.6177 138.183 78.38 138.652C79.1423 139.121 79.7341 139.779 80.1555 140.626C80.5769 141.474 80.7876 142.464 80.7876 143.595C80.7876 144.722 80.5769 145.707 80.1555 146.55C79.7341 147.393 79.1423 148.048 78.38 148.517C77.6177 148.986 76.7251 149.22 75.7024 149.22ZM75.7095 147.438C76.3724 147.438 76.9216 147.262 77.3572 146.912C77.7929 146.562 78.1148 146.095 78.3232 145.513C78.5362 144.93 78.6428 144.289 78.6428 143.588C78.6428 142.892 78.5362 142.253 78.3232 141.67C78.1148 141.083 77.7929 140.612 77.3572 140.257C76.9216 139.902 76.3724 139.724 75.7095 139.724C75.0419 139.724 74.4879 139.902 74.0476 140.257C73.612 140.612 73.2876 141.083 73.0746 141.67C72.8662 142.253 72.7621 142.892 72.7621 143.588C72.7621 144.289 72.8662 144.93 73.0746 145.513C73.2876 146.095 73.612 146.562 74.0476 146.912C74.4879 147.262 75.0419 147.438 75.7095 147.438ZM90.0685 144.476V138.091H92.1992V149H90.1112V147.111H89.9975C89.7466 147.693 89.3441 148.179 88.7901 148.567C88.2409 148.95 87.5567 149.142 86.7376 149.142C86.0368 149.142 85.4165 148.988 84.8768 148.68C84.3417 148.368 83.9203 147.906 83.6126 147.295C83.3095 146.685 83.158 145.929 83.158 145.03V138.091H85.2816V144.774C85.2816 145.518 85.4876 146.109 85.8995 146.55C86.3114 146.99 86.8465 147.21 87.5046 147.21C87.9023 147.21 88.2977 147.111 88.6907 146.912C89.0884 146.713 89.4175 146.412 89.6779 146.01C89.9431 145.607 90.0733 145.096 90.0685 144.476ZM97.1761 142.523V149H95.0526V138.091H97.0909V139.866H97.2259C97.4768 139.289 97.8698 138.825 98.4048 138.474C98.9446 138.124 99.6241 137.949 100.443 137.949C101.187 137.949 101.838 138.105 102.396 138.418C102.955 138.725 103.388 139.185 103.696 139.795C104.004 140.406 104.158 141.161 104.158 142.061V149H102.034V142.317C102.034 141.526 101.828 140.908 101.416 140.463C101.004 140.013 100.438 139.788 99.7188 139.788C99.2263 139.788 98.7884 139.895 98.4048 140.108C98.026 140.321 97.7254 140.634 97.5028 141.045C97.285 141.453 97.1761 141.945 97.1761 142.523ZM112.098 138.091V139.795H106.139V138.091H112.098ZM107.737 135.477H109.861V145.797C109.861 146.209 109.922 146.519 110.045 146.727C110.169 146.931 110.327 147.071 110.521 147.146C110.72 147.217 110.936 147.253 111.168 147.253C111.338 147.253 111.487 147.241 111.615 147.217C111.743 147.194 111.842 147.175 111.913 147.161L112.297 148.915C112.174 148.962 111.999 149.009 111.771 149.057C111.544 149.109 111.26 149.137 110.919 149.142C110.36 149.152 109.839 149.052 109.357 148.844C108.874 148.635 108.483 148.313 108.185 147.878C107.886 147.442 107.737 146.895 107.737 146.237V135.477ZM124.335 149.22C123.313 149.22 122.42 148.986 121.658 148.517C120.895 148.048 120.304 147.393 119.882 146.55C119.461 145.707 119.25 144.722 119.25 143.595C119.25 142.464 119.461 141.474 119.882 140.626C120.304 139.779 120.895 139.121 121.658 138.652C122.42 138.183 123.313 137.949 124.335 137.949C125.358 137.949 126.25 138.183 127.013 138.652C127.775 139.121 128.367 139.779 128.788 140.626C129.21 141.474 129.42 142.464 129.42 143.595C129.42 144.722 129.21 145.707 128.788 146.55C128.367 147.393 127.775 148.048 127.013 148.517C126.25 148.986 125.358 149.22 124.335 149.22ZM124.342 147.438C125.005 147.438 125.554 147.262 125.99 146.912C126.426 146.562 126.748 146.095 126.956 145.513C127.169 144.93 127.276 144.289 127.276 143.588C127.276 142.892 127.169 142.253 126.956 141.67C126.748 141.083 126.426 140.612 125.99 140.257C125.554 139.902 125.005 139.724 124.342 139.724C123.675 139.724 123.121 139.902 122.68 140.257C122.245 140.612 121.92 141.083 121.707 141.67C121.499 142.253 121.395 142.892 121.395 143.588C121.395 144.289 121.499 144.93 121.707 145.513C121.92 146.095 122.245 146.562 122.68 146.912C123.121 147.262 123.675 147.438 124.342 147.438ZM136.983 138.091V139.795H130.818V138.091H136.983ZM132.508 149V136.827C132.508 136.145 132.657 135.579 132.956 135.129C133.254 134.675 133.649 134.336 134.142 134.114C134.634 133.886 135.169 133.773 135.747 133.773C136.173 133.773 136.538 133.808 136.841 133.879C137.144 133.946 137.368 134.007 137.515 134.064L137.018 135.783C136.919 135.754 136.791 135.721 136.635 135.683C136.478 135.641 136.289 135.619 136.066 135.619C135.55 135.619 135.181 135.747 134.958 136.003C134.741 136.259 134.632 136.628 134.632 137.111V149H132.508ZM145.908 134.455L149.957 146.301H150.12L154.168 134.455H156.54L151.306 149H148.771L143.536 134.455H145.908ZM158.641 149V134.455H160.836V147.111H167.426V149H158.641ZM174.639 149H169.93V134.455H174.788C176.213 134.455 177.437 134.746 178.46 135.328C179.483 135.906 180.266 136.737 180.811 137.821C181.36 138.901 181.635 140.196 181.635 141.706C181.635 143.221 181.358 144.523 180.804 145.612C180.254 146.701 179.459 147.539 178.417 148.126C177.376 148.709 176.116 149 174.639 149ZM172.125 147.082H174.518C175.626 147.082 176.547 146.874 177.281 146.457C178.015 146.036 178.564 145.428 178.929 144.632C179.293 143.832 179.475 142.857 179.475 141.706C179.475 140.565 179.293 139.597 178.929 138.801C178.569 138.006 178.031 137.402 177.316 136.99C176.601 136.578 175.714 136.372 174.653 136.372H172.125V147.082ZM189.486 149V138.091H191.61V149H189.486ZM190.559 136.408C190.189 136.408 189.872 136.285 189.607 136.038C189.346 135.787 189.216 135.489 189.216 135.143C189.216 134.793 189.346 134.495 189.607 134.249C189.872 133.998 190.189 133.872 190.559 133.872C190.928 133.872 191.243 133.998 191.503 134.249C191.768 134.495 191.901 134.793 191.901 135.143C191.901 135.489 191.768 135.787 191.503 136.038C191.243 136.285 190.928 136.408 190.559 136.408ZM196.59 142.523V149H194.467V138.091H196.505V139.866H196.64C196.891 139.289 197.284 138.825 197.819 138.474C198.359 138.124 199.038 137.949 199.857 137.949C200.601 137.949 201.252 138.105 201.81 138.418C202.369 138.725 202.802 139.185 203.11 139.795C203.418 140.406 203.572 141.161 203.572 142.061V149H201.448V142.317C201.448 141.526 201.242 140.908 200.83 140.463C200.418 140.013 199.853 139.788 199.133 139.788C198.64 139.788 198.202 139.895 197.819 140.108C197.44 140.321 197.139 140.634 196.917 141.045C196.699 141.453 196.59 141.945 196.59 142.523ZM223.623 134.455V149H221.606L214.213 138.332H214.078V149H211.883V134.455H213.914L221.315 145.136H221.45V134.455H223.623ZM231.249 149.22C230.227 149.22 229.334 148.986 228.572 148.517C227.809 148.048 227.218 147.393 226.796 146.55C226.375 145.707 226.164 144.722 226.164 143.595C226.164 142.464 226.375 141.474 226.796 140.626C227.218 139.779 227.809 139.121 228.572 138.652C229.334 138.183 230.227 137.949 231.249 137.949C232.272 137.949 233.165 138.183 233.927 138.652C234.689 139.121 235.281 139.779 235.702 140.626C236.124 141.474 236.335 142.464 236.335 143.595C236.335 144.722 236.124 145.707 235.702 146.55C235.281 147.393 234.689 148.048 233.927 148.517C233.165 148.986 232.272 149.22 231.249 149.22ZM231.256 147.438C231.919 147.438 232.469 147.262 232.904 146.912C233.34 146.562 233.662 146.095 233.87 145.513C234.083 144.93 234.19 144.289 234.19 143.588C234.19 142.892 234.083 142.253 233.87 141.67C233.662 141.083 233.34 140.612 232.904 140.257C232.469 139.902 231.919 139.724 231.256 139.724C230.589 139.724 230.035 139.902 229.594 140.257C229.159 140.612 228.835 141.083 228.621 141.67C228.413 142.253 228.309 142.892 228.309 143.588C228.309 144.289 228.413 144.93 228.621 145.513C228.835 146.095 229.159 146.562 229.594 146.912C230.035 147.262 230.589 147.438 231.256 147.438ZM242.789 149.213C241.908 149.213 241.122 148.988 240.431 148.538C239.744 148.084 239.204 147.437 238.811 146.599C238.423 145.757 238.229 144.746 238.229 143.567C238.229 142.388 238.426 141.379 238.819 140.541C239.216 139.703 239.761 139.062 240.452 138.616C241.143 138.171 241.927 137.949 242.803 137.949C243.48 137.949 244.025 138.062 244.436 138.29C244.853 138.512 245.175 138.773 245.402 139.071C245.634 139.369 245.814 139.632 245.942 139.859H246.07V134.455H248.194V149H246.12V147.303H245.942C245.814 147.535 245.63 147.8 245.388 148.098C245.151 148.396 244.825 148.657 244.408 148.879C243.991 149.102 243.452 149.213 242.789 149.213ZM243.257 147.402C243.868 147.402 244.384 147.241 244.806 146.919C245.232 146.592 245.554 146.14 245.772 145.562C245.994 144.985 246.105 144.312 246.105 143.545C246.105 142.788 245.997 142.125 245.779 141.557C245.561 140.989 245.241 140.546 244.82 140.229C244.399 139.911 243.878 139.753 243.257 139.753C242.618 139.753 242.086 139.919 241.659 140.25C241.233 140.581 240.911 141.034 240.694 141.607C240.48 142.179 240.374 142.826 240.374 143.545C240.374 144.275 240.483 144.93 240.701 145.513C240.918 146.095 241.24 146.557 241.667 146.898C242.097 147.234 242.628 147.402 243.257 147.402ZM255.926 149.22C254.851 149.22 253.926 148.991 253.149 148.531C252.377 148.067 251.781 147.416 251.359 146.578C250.943 145.735 250.734 144.748 250.734 143.616C250.734 142.499 250.943 141.514 251.359 140.662C251.781 139.81 252.368 139.144 253.121 138.666C253.878 138.188 254.764 137.949 255.777 137.949C256.393 137.949 256.989 138.051 257.567 138.254C258.144 138.458 258.663 138.777 259.122 139.213C259.581 139.649 259.944 140.214 260.209 140.911C260.474 141.602 260.607 142.442 260.607 143.432V144.185H251.935V142.594H258.526C258.526 142.035 258.412 141.54 258.185 141.109C257.957 140.674 257.638 140.33 257.226 140.08C256.819 139.829 256.34 139.703 255.791 139.703C255.195 139.703 254.674 139.85 254.229 140.143C253.788 140.432 253.447 140.811 253.206 141.28C252.969 141.744 252.851 142.248 252.851 142.793V144.036C252.851 144.765 252.979 145.385 253.234 145.896C253.495 146.408 253.857 146.798 254.321 147.068C254.785 147.333 255.327 147.466 255.947 147.466C256.35 147.466 256.717 147.409 257.048 147.295C257.38 147.177 257.666 147.002 257.908 146.77C258.149 146.538 258.334 146.251 258.462 145.911L260.472 146.273C260.311 146.865 260.022 147.383 259.605 147.828C259.193 148.268 258.675 148.612 258.05 148.858C257.429 149.099 256.722 149.22 255.926 149.22ZM264.362 149.135C263.974 149.135 263.64 148.998 263.36 148.723C263.081 148.444 262.941 148.107 262.941 147.714C262.941 147.326 263.081 146.995 263.36 146.72C263.64 146.441 263.974 146.301 264.362 146.301C264.75 146.301 265.084 146.441 265.363 146.72C265.643 146.995 265.782 147.326 265.782 147.714C265.782 147.975 265.716 148.214 265.583 148.432C265.456 148.645 265.285 148.815 265.072 148.943C264.859 149.071 264.622 149.135 264.362 149.135ZM264.362 141.195C263.974 141.195 263.64 141.055 263.36 140.776C263.081 140.496 262.941 140.162 262.941 139.774C262.941 139.386 263.081 139.054 263.36 138.78C263.64 138.5 263.974 138.361 264.362 138.361C264.75 138.361 265.084 138.5 265.363 138.78C265.643 139.054 265.782 139.386 265.782 139.774C265.782 140.035 265.716 140.274 265.583 140.491C265.456 140.705 265.285 140.875 265.072 141.003C264.859 141.131 264.622 141.195 264.362 141.195Z" fill="url(#paint1_linear_7_86)"/>
<path d="M39.6506 317H38.358L42.0966 306.818H43.3693L47.108 317H45.8153L42.7727 308.429H42.6932L39.6506 317ZM40.1278 313.023H45.3381V314.116H40.1278V313.023ZM48.5348 317V309.364H49.6683V310.557H49.7678C49.9268 310.149 50.1837 309.833 50.5384 309.607C50.893 309.379 51.3189 309.264 51.8161 309.264C52.3198 309.264 52.7391 309.379 53.0739 309.607C53.4119 309.833 53.6754 310.149 53.8643 310.557H53.9439C54.1394 310.162 54.4328 309.849 54.8239 309.617C55.215 309.382 55.6839 309.264 56.2308 309.264C56.9136 309.264 57.4721 309.478 57.9062 309.906C58.3404 310.33 58.5575 310.991 58.5575 311.889V317H57.3842V311.889C57.3842 311.326 57.2301 310.923 56.9219 310.681C56.6136 310.439 56.2507 310.318 55.8331 310.318C55.2962 310.318 54.8802 310.481 54.5852 310.805C54.2902 311.127 54.1428 311.535 54.1428 312.028V317H52.9496V311.77C52.9496 311.336 52.8087 310.986 52.527 310.721C52.2453 310.452 51.8823 310.318 51.4382 310.318C51.1333 310.318 50.8482 310.399 50.5831 310.562C50.3213 310.724 50.1091 310.95 49.9467 311.238C49.7876 311.523 49.7081 311.853 49.7081 312.227V317H48.5348ZM63.805 317.159C63.1156 317.159 62.5108 316.995 61.9904 316.667C61.4734 316.339 61.069 315.88 60.7773 315.29C60.489 314.7 60.3448 314.01 60.3448 313.222C60.3448 312.426 60.489 311.732 60.7773 311.138C61.069 310.545 61.4734 310.085 61.9904 309.756C62.5108 309.428 63.1156 309.264 63.805 309.264C64.4944 309.264 65.0977 309.428 65.6147 309.756C66.1351 310.085 66.5394 310.545 66.8278 311.138C67.1194 311.732 67.2653 312.426 67.2653 313.222C67.2653 314.01 67.1194 314.7 66.8278 315.29C66.5394 315.88 66.1351 316.339 65.6147 316.667C65.0977 316.995 64.4944 317.159 63.805 317.159ZM63.805 316.105C64.3287 316.105 64.7596 315.971 65.0977 315.702C65.4357 315.434 65.686 315.081 65.8484 314.643C66.0108 314.206 66.092 313.732 66.092 313.222C66.092 312.711 66.0108 312.236 65.8484 311.795C65.686 311.354 65.4357 310.998 65.0977 310.726C64.7596 310.454 64.3287 310.318 63.805 310.318C63.2814 310.318 62.8505 310.454 62.5124 310.726C62.1744 310.998 61.9241 311.354 61.7617 311.795C61.5993 312.236 61.5181 312.711 61.5181 313.222C61.5181 313.732 61.5993 314.206 61.7617 314.643C61.9241 315.081 62.1744 315.434 62.5124 315.702C62.8505 315.971 63.2814 316.105 63.805 316.105ZM73.8688 313.878V309.364H75.0421V317H73.8688V315.707H73.7892C73.6103 316.095 73.3319 316.425 72.954 316.697C72.5762 316.965 72.0989 317.099 71.5222 317.099C71.0449 317.099 70.6207 316.995 70.2495 316.786C69.8783 316.574 69.5866 316.256 69.3745 315.832C69.1623 315.404 69.0563 314.866 69.0563 314.216V309.364H70.2296V314.136C70.2296 314.693 70.3854 315.137 70.6969 315.469C71.0118 315.8 71.4128 315.966 71.9 315.966C72.1917 315.966 72.4883 315.891 72.79 315.742C73.0949 315.593 73.3501 315.364 73.5556 315.056C73.7644 314.748 73.8688 314.355 73.8688 313.878ZM78.3643 312.406V317H77.1911V309.364H78.3246V310.557H78.424C78.603 310.169 78.8748 309.857 79.2393 309.622C79.6039 309.384 80.0746 309.264 80.6513 309.264C81.1683 309.264 81.6207 309.37 82.0085 309.582C82.3963 309.791 82.6979 310.109 82.9134 310.537C83.1288 310.961 83.2365 311.498 83.2365 312.148V317H82.0632V312.227C82.0632 311.627 81.9074 311.16 81.5959 310.825C81.2843 310.487 80.8568 310.318 80.3132 310.318C79.9387 310.318 79.6039 310.399 79.3089 310.562C79.0173 310.724 78.7869 310.961 78.6179 311.273C78.4489 311.584 78.3643 311.962 78.3643 312.406ZM88.7015 309.364V310.358H84.7441V309.364H88.7015ZM85.8975 307.534H87.0708V314.812C87.0708 315.144 87.1189 315.393 87.215 315.558C87.3145 315.721 87.4404 315.83 87.5929 315.886C87.7486 315.939 87.9127 315.966 88.085 315.966C88.2143 315.966 88.3204 315.959 88.4032 315.946C88.4861 315.929 88.5524 315.916 88.6021 315.906L88.8407 316.96C88.7612 316.99 88.6502 317.02 88.5076 317.05C88.3651 317.083 88.1845 317.099 87.9657 317.099C87.6343 317.099 87.3095 317.028 86.9913 316.886C86.6764 316.743 86.4146 316.526 86.2058 316.234C86.0003 315.943 85.8975 315.575 85.8975 315.131V307.534ZM94.4039 319.864V309.364H95.5375V310.577H95.6767C95.7628 310.444 95.8822 310.275 96.0346 310.07C96.1904 309.861 96.4125 309.675 96.7008 309.513C96.9925 309.347 97.3869 309.264 97.8841 309.264C98.527 309.264 99.0938 309.425 99.5843 309.746C100.075 310.068 100.458 310.524 100.733 311.114C101.008 311.704 101.145 312.4 101.145 313.202C101.145 314.01 101.008 314.711 100.733 315.305C100.458 315.895 100.077 316.352 99.5893 316.677C99.1021 316.998 98.5403 317.159 97.9039 317.159C97.4134 317.159 97.0207 317.078 96.7257 316.915C96.4307 316.75 96.2037 316.562 96.0446 316.354C95.8855 316.142 95.7628 315.966 95.6767 315.827H95.5772V319.864H94.4039ZM95.5574 313.182C95.5574 313.759 95.6419 314.267 95.8109 314.708C95.9799 315.146 96.2269 315.489 96.5517 315.737C96.8765 315.982 97.2742 316.105 97.7449 316.105C98.2354 316.105 98.6447 315.976 98.9728 315.717C99.3043 315.455 99.5529 315.104 99.7186 314.663C99.8876 314.219 99.9721 313.725 99.9721 313.182C99.9721 312.645 99.8893 312.161 99.7235 311.73C99.5611 311.296 99.3142 310.953 98.9828 310.701C98.6547 310.446 98.242 310.318 97.7449 310.318C97.2676 310.318 96.8665 310.439 96.5417 310.681C96.2169 310.92 95.9717 311.254 95.8059 311.685C95.6402 312.113 95.5574 312.612 95.5574 313.182ZM107.748 313.878V309.364H108.921V317H107.748V315.707H107.668C107.489 316.095 107.211 316.425 106.833 316.697C106.455 316.965 105.978 317.099 105.401 317.099C104.924 317.099 104.5 316.995 104.128 316.786C103.757 316.574 103.465 316.256 103.253 315.832C103.041 315.404 102.935 314.866 102.935 314.216V309.364H104.108V314.136C104.108 314.693 104.264 315.137 104.576 315.469C104.891 315.8 105.292 315.966 105.779 315.966C106.071 315.966 106.367 315.891 106.669 315.742C106.974 315.593 107.229 315.364 107.434 315.056C107.643 314.748 107.748 314.355 107.748 313.878ZM114.391 309.364V310.358H110.434V309.364H114.391ZM111.587 307.534H112.76V314.812C112.76 315.144 112.808 315.393 112.904 315.558C113.004 315.721 113.13 315.83 113.282 315.886C113.438 315.939 113.602 315.966 113.775 315.966C113.904 315.966 114.01 315.959 114.093 315.946C114.176 315.929 114.242 315.916 114.292 315.906L114.53 316.96C114.451 316.99 114.34 317.02 114.197 317.05C114.055 317.083 113.874 317.099 113.655 317.099C113.324 317.099 112.999 317.028 112.681 316.886C112.366 316.743 112.104 316.526 111.895 316.234C111.69 315.943 111.587 315.575 111.587 315.131V307.534ZM120.093 317V309.364H121.267V317H120.093ZM120.69 308.091C120.461 308.091 120.264 308.013 120.098 307.857C119.936 307.701 119.855 307.514 119.855 307.295C119.855 307.077 119.936 306.889 120.098 306.734C120.264 306.578 120.461 306.5 120.69 306.5C120.919 306.5 121.114 306.578 121.277 306.734C121.442 306.889 121.525 307.077 121.525 307.295C121.525 307.514 121.442 307.701 121.277 307.857C121.114 308.013 120.919 308.091 120.69 308.091ZM124.589 312.406V317H123.416V309.364H124.549V310.557H124.649C124.828 310.169 125.099 309.857 125.464 309.622C125.829 309.384 126.299 309.264 126.876 309.264C127.393 309.264 127.845 309.37 128.233 309.582C128.621 309.791 128.923 310.109 129.138 310.537C129.353 310.961 129.461 311.498 129.461 312.148V317H128.288V312.227C128.288 311.627 128.132 311.16 127.82 310.825C127.509 310.487 127.081 310.318 126.538 310.318C126.163 310.318 125.829 310.399 125.534 310.562C125.242 310.724 125.012 310.961 124.843 311.273C124.673 311.584 124.589 311.962 124.589 312.406ZM134.926 309.364V310.358H130.969V309.364H134.926ZM132.122 307.534H133.295V314.812C133.295 315.144 133.344 315.393 133.44 315.558C133.539 315.721 133.665 315.83 133.817 315.886C133.973 315.939 134.137 315.966 134.31 315.966C134.439 315.966 134.545 315.959 134.628 315.946C134.711 315.929 134.777 315.916 134.827 315.906L135.065 316.96C134.986 316.99 134.875 317.02 134.732 317.05C134.59 317.083 134.409 317.099 134.19 317.099C133.859 317.099 133.534 317.028 133.216 316.886C132.901 316.743 132.639 316.526 132.43 316.234C132.225 315.943 132.122 315.575 132.122 315.131V307.534ZM139.711 317.159C139.022 317.159 138.417 316.995 137.897 316.667C137.38 316.339 136.975 315.88 136.684 315.29C136.395 314.7 136.251 314.01 136.251 313.222C136.251 312.426 136.395 311.732 136.684 311.138C136.975 310.545 137.38 310.085 137.897 309.756C138.417 309.428 139.022 309.264 139.711 309.264C140.401 309.264 141.004 309.428 141.521 309.756C142.041 310.085 142.446 310.545 142.734 311.138C143.026 311.732 143.172 312.426 143.172 313.222C143.172 314.01 143.026 314.7 142.734 315.29C142.446 315.88 142.041 316.339 141.521 316.667C141.004 316.995 140.401 317.159 139.711 317.159ZM139.711 316.105C140.235 316.105 140.666 315.971 141.004 315.702C141.342 315.434 141.592 315.081 141.755 314.643C141.917 314.206 141.998 313.732 141.998 313.222C141.998 312.711 141.917 312.236 141.755 311.795C141.592 311.354 141.342 310.998 141.004 310.726C140.666 310.454 140.235 310.318 139.711 310.318C139.188 310.318 138.757 310.454 138.419 310.726C138.081 310.998 137.83 311.354 137.668 311.795C137.506 312.236 137.424 312.711 137.424 313.222C137.424 313.732 137.506 314.206 137.668 314.643C137.83 315.081 138.081 315.434 138.419 315.702C138.757 315.971 139.188 316.105 139.711 316.105ZM150.073 312.406V317H148.9V309.364H150.034V310.557H150.133C150.312 310.169 150.584 309.857 150.948 309.622C151.313 309.384 151.784 309.264 152.36 309.264C152.877 309.264 153.33 309.37 153.718 309.582C154.105 309.791 154.407 310.109 154.622 310.537C154.838 310.961 154.945 311.498 154.945 312.148V317H153.772V312.227C153.772 311.627 153.616 311.16 153.305 310.825C152.993 310.487 152.566 310.318 152.022 310.318C151.648 310.318 151.313 310.399 151.018 310.562C150.726 310.724 150.496 310.961 150.327 311.273C150.158 311.584 150.073 311.962 150.073 312.406ZM160.192 317.159C159.502 317.159 158.897 316.995 158.377 316.667C157.86 316.339 157.456 315.88 157.164 315.29C156.876 314.7 156.732 314.01 156.732 313.222C156.732 312.426 156.876 311.732 157.164 311.138C157.456 310.545 157.86 310.085 158.377 309.756C158.897 309.428 159.502 309.264 160.192 309.264C160.881 309.264 161.484 309.428 162.001 309.756C162.522 310.085 162.926 310.545 163.214 311.138C163.506 311.732 163.652 312.426 163.652 313.222C163.652 314.01 163.506 314.7 163.214 315.29C162.926 315.88 162.522 316.339 162.001 316.667C161.484 316.995 160.881 317.159 160.192 317.159ZM160.192 316.105C160.715 316.105 161.146 315.971 161.484 315.702C161.822 315.434 162.073 315.081 162.235 314.643C162.397 314.206 162.479 313.732 162.479 313.222C162.479 312.711 162.397 312.236 162.235 311.795C162.073 311.354 161.822 310.998 161.484 310.726C161.146 310.454 160.715 310.318 160.192 310.318C159.668 310.318 159.237 310.454 158.899 310.726C158.561 310.998 158.311 311.354 158.148 311.795C157.986 312.236 157.905 312.711 157.905 313.222C157.905 313.732 157.986 314.206 158.148 314.643C158.311 315.081 158.561 315.434 158.899 315.702C159.237 315.971 159.668 316.105 160.192 316.105ZM168.327 317.159C167.69 317.159 167.128 316.998 166.641 316.677C166.154 316.352 165.773 315.895 165.498 315.305C165.223 314.711 165.085 314.01 165.085 313.202C165.085 312.4 165.223 311.704 165.498 311.114C165.773 310.524 166.156 310.068 166.646 309.746C167.137 309.425 167.703 309.264 168.346 309.264C168.844 309.264 169.236 309.347 169.525 309.513C169.816 309.675 170.038 309.861 170.191 310.07C170.347 310.275 170.468 310.444 170.554 310.577H170.653V306.818H171.827V317H170.693V315.827H170.554C170.468 315.966 170.345 316.142 170.186 316.354C170.027 316.562 169.8 316.75 169.505 316.915C169.21 317.078 168.817 317.159 168.327 317.159ZM168.486 316.105C168.956 316.105 169.354 315.982 169.679 315.737C170.004 315.489 170.251 315.146 170.42 314.708C170.589 314.267 170.673 313.759 170.673 313.182C170.673 312.612 170.59 312.113 170.425 311.685C170.259 311.254 170.014 310.92 169.689 310.681C169.364 310.439 168.963 310.318 168.486 310.318C167.988 310.318 167.574 310.446 167.243 310.701C166.915 310.953 166.668 311.296 166.502 311.73C166.34 312.161 166.258 312.645 166.258 313.182C166.258 313.725 166.341 314.219 166.507 314.663C166.676 315.104 166.925 315.455 167.253 315.717C167.584 315.976 167.995 316.105 168.486 316.105ZM177.34 317.159C176.604 317.159 175.97 316.997 175.436 316.672C174.906 316.344 174.496 315.886 174.208 315.3C173.923 314.71 173.78 314.024 173.78 313.241C173.78 312.459 173.923 311.77 174.208 311.173C174.496 310.573 174.897 310.106 175.411 309.771C175.928 309.433 176.531 309.264 177.221 309.264C177.618 309.264 178.011 309.33 178.399 309.463C178.787 309.596 179.14 309.811 179.458 310.109C179.776 310.404 180.03 310.795 180.219 311.283C180.407 311.77 180.502 312.37 180.502 313.082V313.58H174.616V312.565H179.309C179.309 312.134 179.223 311.75 179.05 311.412C178.881 311.074 178.639 310.807 178.324 310.612C178.013 310.416 177.645 310.318 177.221 310.318C176.753 310.318 176.349 310.434 176.008 310.666C175.67 310.895 175.409 311.193 175.227 311.561C175.045 311.929 174.954 312.323 174.954 312.744V313.42C174.954 313.997 175.053 314.486 175.252 314.887C175.454 315.285 175.734 315.588 176.092 315.797C176.45 316.002 176.866 316.105 177.34 316.105C177.648 316.105 177.927 316.062 178.175 315.976C178.427 315.886 178.644 315.754 178.827 315.578C179.009 315.399 179.15 315.177 179.249 314.912L180.383 315.23C180.263 315.615 180.063 315.953 179.781 316.244C179.499 316.533 179.151 316.758 178.737 316.92C178.323 317.08 177.857 317.159 177.34 317.159ZM189.327 317.159C188.611 317.159 187.994 316.99 187.477 316.652C186.96 316.314 186.562 315.848 186.284 315.255C186.006 314.662 185.866 313.984 185.866 313.222C185.866 312.446 186.009 311.762 186.294 311.168C186.582 310.572 186.983 310.106 187.497 309.771C188.014 309.433 188.617 309.264 189.307 309.264C189.844 309.264 190.327 309.364 190.758 309.562C191.189 309.761 191.542 310.04 191.817 310.398C192.092 310.756 192.263 311.173 192.329 311.651H191.156C191.067 311.303 190.868 310.994 190.559 310.726C190.255 310.454 189.844 310.318 189.327 310.318C188.869 310.318 188.468 310.437 188.123 310.676C187.782 310.911 187.515 311.245 187.323 311.675C187.134 312.103 187.04 312.605 187.04 313.182C187.04 313.772 187.132 314.286 187.318 314.723C187.507 315.161 187.772 315.5 188.113 315.742C188.458 315.984 188.863 316.105 189.327 316.105C189.631 316.105 189.908 316.052 190.157 315.946C190.405 315.84 190.616 315.688 190.788 315.489C190.961 315.29 191.083 315.051 191.156 314.773H192.329C192.263 315.223 192.099 315.629 191.837 315.991C191.579 316.349 191.236 316.634 190.808 316.846C190.384 317.055 189.89 317.159 189.327 317.159ZM196.292 317.179C195.808 317.179 195.369 317.088 194.974 316.906C194.58 316.72 194.267 316.453 194.035 316.105C193.803 315.754 193.687 315.33 193.687 314.832C193.687 314.395 193.773 314.04 193.945 313.768C194.117 313.493 194.348 313.278 194.636 313.122C194.925 312.966 195.243 312.85 195.591 312.774C195.942 312.695 196.295 312.632 196.65 312.585C197.114 312.526 197.49 312.481 197.778 312.451C198.07 312.418 198.282 312.363 198.415 312.287C198.55 312.211 198.618 312.078 198.618 311.889V311.849C198.618 311.359 198.484 310.978 198.216 310.706C197.951 310.434 197.548 310.298 197.008 310.298C196.448 310.298 196.008 310.421 195.69 310.666C195.372 310.911 195.148 311.173 195.019 311.452L193.905 311.054C194.104 310.59 194.369 310.229 194.701 309.97C195.036 309.708 195.4 309.526 195.795 309.423C196.192 309.317 196.583 309.264 196.968 309.264C197.213 309.264 197.495 309.294 197.813 309.354C198.135 309.41 198.444 309.528 198.743 309.707C199.044 309.886 199.295 310.156 199.493 310.517C199.692 310.878 199.792 311.362 199.792 311.969V317H198.618V315.966H198.559C198.479 316.132 198.347 316.309 198.161 316.498C197.975 316.687 197.729 316.848 197.42 316.98C197.112 317.113 196.736 317.179 196.292 317.179ZM196.471 316.125C196.935 316.125 197.326 316.034 197.644 315.852C197.965 315.669 198.207 315.434 198.37 315.146C198.536 314.857 198.618 314.554 198.618 314.236V313.162C198.569 313.222 198.459 313.276 198.29 313.326C198.125 313.372 197.932 313.414 197.714 313.45C197.498 313.483 197.288 313.513 197.082 313.54C196.88 313.563 196.716 313.583 196.59 313.599C196.285 313.639 196 313.704 195.735 313.793C195.473 313.879 195.261 314.01 195.099 314.186C194.939 314.358 194.86 314.594 194.86 314.892C194.86 315.3 195.011 315.608 195.312 315.817C195.617 316.022 196.003 316.125 196.471 316.125ZM203.107 312.406V317H201.933V309.364H203.067V310.557H203.166C203.345 310.169 203.617 309.857 203.982 309.622C204.346 309.384 204.817 309.264 205.393 309.264C205.911 309.264 206.363 309.37 206.751 309.582C207.138 309.791 207.44 310.109 207.656 310.537C207.871 310.961 207.979 311.498 207.979 312.148V317H206.805V312.227C206.805 311.627 206.65 311.16 206.338 310.825C206.027 310.487 205.599 310.318 205.055 310.318C204.681 310.318 204.346 310.399 204.051 310.562C203.759 310.724 203.529 310.961 203.36 311.273C203.191 311.584 203.107 311.962 203.107 312.406ZM211.296 312.406V317H210.123V309.364H211.256V310.557H211.356C211.535 310.169 211.806 309.857 212.171 309.622C212.536 309.384 213.006 309.264 213.583 309.264C214.1 309.264 214.552 309.37 214.94 309.582C215.328 309.791 215.63 310.109 215.845 310.537C216.06 310.961 216.168 311.498 216.168 312.148V317H214.995V312.227C214.995 311.627 214.839 311.16 214.528 310.825C214.216 310.487 213.788 310.318 213.245 310.318C212.87 310.318 212.536 310.399 212.241 310.562C211.949 310.724 211.719 310.961 211.55 311.273C211.381 311.584 211.296 311.962 211.296 312.406ZM221.414 317.159C220.725 317.159 220.12 316.995 219.6 316.667C219.083 316.339 218.678 315.88 218.387 315.29C218.098 314.7 217.954 314.01 217.954 313.222C217.954 312.426 218.098 311.732 218.387 311.138C218.678 310.545 219.083 310.085 219.6 309.756C220.12 309.428 220.725 309.264 221.414 309.264C222.104 309.264 222.707 309.428 223.224 309.756C223.744 310.085 224.149 310.545 224.437 311.138C224.729 311.732 224.875 312.426 224.875 313.222C224.875 314.01 224.729 314.7 224.437 315.29C224.149 315.88 223.744 316.339 223.224 316.667C222.707 316.995 222.104 317.159 221.414 317.159ZM221.414 316.105C221.938 316.105 222.369 315.971 222.707 315.702C223.045 315.434 223.295 315.081 223.458 314.643C223.62 314.206 223.701 313.732 223.701 313.222C223.701 312.711 223.62 312.236 223.458 311.795C223.295 311.354 223.045 310.998 222.707 310.726C222.369 310.454 221.938 310.318 221.414 310.318C220.891 310.318 220.46 310.454 220.122 310.726C219.784 310.998 219.533 311.354 219.371 311.795C219.209 312.236 219.127 312.711 219.127 313.222C219.127 313.732 219.209 314.206 219.371 314.643C219.533 315.081 219.784 315.434 220.122 315.702C220.46 315.971 220.891 316.105 221.414 316.105ZM229.987 309.364V310.358H226.029V309.364H229.987ZM227.183 307.534H228.356V314.812C228.356 315.144 228.404 315.393 228.5 315.558C228.6 315.721 228.726 315.83 228.878 315.886C229.034 315.939 229.198 315.966 229.37 315.966C229.499 315.966 229.606 315.959 229.688 315.946C229.771 315.929 229.838 315.916 229.887 315.906L230.126 316.96C230.046 316.99 229.935 317.02 229.793 317.05C229.65 317.083 229.47 317.099 229.251 317.099C228.919 317.099 228.595 317.028 228.276 316.886C227.962 316.743 227.7 316.526 227.491 316.234C227.285 315.943 227.183 315.575 227.183 315.131V307.534ZM235.848 317V306.818H237.021V310.577H237.121C237.207 310.444 237.326 310.275 237.479 310.07C237.635 309.861 237.857 309.675 238.145 309.513C238.437 309.347 238.831 309.264 239.328 309.264C239.971 309.264 240.538 309.425 241.029 309.746C241.519 310.068 241.902 310.524 242.177 311.114C242.452 311.704 242.59 312.4 242.59 313.202C242.59 314.01 242.452 314.711 242.177 315.305C241.902 315.895 241.521 316.352 241.034 316.677C240.546 316.998 239.985 317.159 239.348 317.159C238.858 317.159 238.465 317.078 238.17 316.915C237.875 316.75 237.648 316.562 237.489 316.354C237.33 316.142 237.207 315.966 237.121 315.827H236.982V317H235.848ZM237.002 313.182C237.002 313.759 237.086 314.267 237.255 314.708C237.424 315.146 237.671 315.489 237.996 315.737C238.321 315.982 238.718 316.105 239.189 316.105C239.68 316.105 240.089 315.976 240.417 315.717C240.749 315.455 240.997 315.104 241.163 314.663C241.332 314.219 241.416 313.725 241.416 313.182C241.416 312.645 241.334 312.161 241.168 311.73C241.005 311.296 240.758 310.953 240.427 310.701C240.099 310.446 239.686 310.318 239.189 310.318C238.712 310.318 238.311 310.439 237.986 310.681C237.661 310.92 237.416 311.254 237.25 311.685C237.084 312.113 237.002 312.612 237.002 313.182ZM247.586 317.159C246.85 317.159 246.216 316.997 245.682 316.672C245.152 316.344 244.742 315.886 244.454 315.3C244.169 314.71 244.026 314.024 244.026 313.241C244.026 312.459 244.169 311.77 244.454 311.173C244.742 310.573 245.143 310.106 245.657 309.771C246.174 309.433 246.777 309.264 247.467 309.264C247.865 309.264 248.257 309.33 248.645 309.463C249.033 309.596 249.386 309.811 249.704 310.109C250.022 310.404 250.276 310.795 250.465 311.283C250.654 311.77 250.748 312.37 250.748 313.082V313.58H244.862V312.565H249.555C249.555 312.134 249.469 311.75 249.296 311.412C249.127 311.074 248.885 310.807 248.57 310.612C248.259 310.416 247.891 310.318 247.467 310.318C246.999 310.318 246.595 310.434 246.254 310.666C245.916 310.895 245.655 311.193 245.473 311.561C245.291 311.929 245.2 312.323 245.2 312.744V313.42C245.2 313.997 245.299 314.486 245.498 314.887C245.7 315.285 245.98 315.588 246.338 315.797C246.696 316.002 247.112 316.105 247.586 316.105C247.894 316.105 248.173 316.062 248.421 315.976C248.673 315.886 248.89 315.754 249.073 315.578C249.255 315.399 249.396 315.177 249.495 314.912L250.629 315.23C250.509 315.615 250.309 315.953 250.027 316.244C249.745 316.533 249.397 316.758 248.983 316.92C248.569 317.08 248.103 317.159 247.586 317.159ZM259.791 309.364V310.358H255.834V309.364H259.791ZM256.987 307.534H258.161V314.812C258.161 315.144 258.209 315.393 258.305 315.558C258.404 315.721 258.53 315.83 258.683 315.886C258.838 315.939 259.003 315.966 259.175 315.966C259.304 315.966 259.41 315.959 259.493 315.946C259.576 315.929 259.642 315.916 259.692 315.906L259.931 316.96C259.851 316.99 259.74 317.02 259.597 317.05C259.455 317.083 259.274 317.099 259.056 317.099C258.724 317.099 258.399 317.028 258.081 316.886C257.766 316.743 257.504 316.526 257.296 316.234C257.09 315.943 256.987 315.575 256.987 315.131V307.534ZM263.803 317.179C263.32 317.179 262.88 317.088 262.486 316.906C262.092 316.72 261.778 316.453 261.546 316.105C261.314 315.754 261.198 315.33 261.198 314.832C261.198 314.395 261.285 314.04 261.457 313.768C261.629 313.493 261.86 313.278 262.148 313.122C262.436 312.966 262.754 312.85 263.102 312.774C263.454 312.695 263.807 312.632 264.161 312.585C264.625 312.526 265.002 312.481 265.29 312.451C265.582 312.418 265.794 312.363 265.926 312.287C266.062 312.211 266.13 312.078 266.13 311.889V311.849C266.13 311.359 265.996 310.978 265.727 310.706C265.462 310.434 265.06 310.298 264.519 310.298C263.959 310.298 263.52 310.421 263.202 310.666C262.884 310.911 262.66 311.173 262.531 311.452L261.417 311.054C261.616 310.59 261.881 310.229 262.213 309.97C262.547 309.708 262.912 309.526 263.306 309.423C263.704 309.317 264.095 309.264 264.48 309.264C264.725 309.264 265.007 309.294 265.325 309.354C265.646 309.41 265.956 309.528 266.254 309.707C266.556 309.886 266.806 310.156 267.005 310.517C267.204 310.878 267.303 311.362 267.303 311.969V317H266.13V315.966H266.07C265.991 316.132 265.858 316.309 265.673 316.498C265.487 316.687 265.24 316.848 264.932 316.98C264.624 317.113 264.248 317.179 263.803 317.179ZM263.982 316.125C264.446 316.125 264.838 316.034 265.156 315.852C265.477 315.669 265.719 315.434 265.882 315.146C266.047 314.857 266.13 314.554 266.13 314.236V313.162C266.08 313.222 265.971 313.276 265.802 313.326C265.636 313.372 265.444 313.414 265.225 313.45C265.01 313.483 264.799 313.513 264.594 313.54C264.392 313.563 264.228 313.583 264.102 313.599C263.797 313.639 263.512 313.704 263.247 313.793C262.985 313.879 262.773 314.01 262.61 314.186C262.451 314.358 262.372 314.594 262.372 314.892C262.372 315.3 262.522 315.608 262.824 315.817C263.129 316.022 263.515 316.125 263.982 316.125ZM270.539 314.216L270.519 312.764H270.757L274.098 309.364H275.55L271.99 312.963H271.891L270.539 314.216ZM269.445 317V306.818H270.618V317H269.445ZM274.297 317L271.314 313.222L272.15 312.406L275.789 317H274.297ZM279.947 317.159C279.212 317.159 278.577 316.997 278.043 316.672C277.513 316.344 277.104 315.886 276.815 315.3C276.53 314.71 276.388 314.024 276.388 313.241C276.388 312.459 276.53 311.77 276.815 311.173C277.104 310.573 277.505 310.106 278.018 309.771C278.536 309.433 279.139 309.264 279.828 309.264C280.226 309.264 280.619 309.33 281.006 309.463C281.394 309.596 281.747 309.811 282.065 310.109C282.384 310.404 282.637 310.795 282.826 311.283C283.015 311.77 283.109 312.37 283.109 313.082V313.58H277.223V312.565H281.916C281.916 312.134 281.83 311.75 281.658 311.412C281.489 311.074 281.247 310.807 280.932 310.612C280.62 310.416 280.252 310.318 279.828 310.318C279.361 310.318 278.956 310.434 278.615 310.666C278.277 310.895 278.017 311.193 277.835 311.561C277.652 311.929 277.561 312.323 277.561 312.744V313.42C277.561 313.997 277.661 314.486 277.859 314.887C278.062 315.285 278.342 315.588 278.7 315.797C279.058 316.002 279.473 316.105 279.947 316.105C280.256 316.105 280.534 316.062 280.783 315.976C281.035 315.886 281.252 315.754 281.434 315.578C281.616 315.399 281.757 315.177 281.857 314.912L282.99 315.23C282.871 315.615 282.67 315.953 282.388 316.244C282.107 316.533 281.759 316.758 281.344 316.92C280.93 317.08 280.464 317.159 279.947 317.159ZM286.067 312.406V317H284.894V309.364H286.028V310.557H286.127C286.306 310.169 286.578 309.857 286.942 309.622C287.307 309.384 287.778 309.264 288.354 309.264C288.871 309.264 289.324 309.37 289.712 309.582C290.099 309.791 290.401 310.109 290.616 310.537C290.832 310.961 290.94 311.498 290.94 312.148V317H289.766V312.227C289.766 311.627 289.611 311.16 289.299 310.825C288.987 310.487 288.56 310.318 288.016 310.318C287.642 310.318 287.307 310.399 287.012 310.562C286.72 310.724 286.49 310.961 286.321 311.273C286.152 311.584 286.067 311.962 286.067 312.406ZM300.123 317.159C299.434 317.159 298.829 316.995 298.309 316.667C297.792 316.339 297.387 315.88 297.096 315.29C296.807 314.7 296.663 314.01 296.663 313.222C296.663 312.426 296.807 311.732 297.096 311.138C297.387 310.545 297.792 310.085 298.309 309.756C298.829 309.428 299.434 309.264 300.123 309.264C300.813 309.264 301.416 309.428 301.933 309.756C302.453 310.085 302.858 310.545 303.146 311.138C303.438 311.732 303.584 312.426 303.584 313.222C303.584 314.01 303.438 314.7 303.146 315.29C302.858 315.88 302.453 316.339 301.933 316.667C301.416 316.995 300.813 317.159 300.123 317.159ZM300.123 316.105C300.647 316.105 301.078 315.971 301.416 315.702C301.754 315.434 302.004 315.081 302.167 314.643C302.329 314.206 302.41 313.732 302.41 313.222C302.41 312.711 302.329 312.236 302.167 311.795C302.004 311.354 301.754 310.998 301.416 310.726C301.078 310.454 300.647 310.318 300.123 310.318C299.6 310.318 299.169 310.454 298.831 310.726C298.493 310.998 298.242 311.354 298.08 311.795C297.918 312.236 297.836 312.711 297.836 313.222C297.836 313.732 297.918 314.206 298.08 314.643C298.242 315.081 298.493 315.434 298.831 315.702C299.169 315.971 299.6 316.105 300.123 316.105ZM310.187 313.878V309.364H311.36V317H310.187V315.707H310.108C309.929 316.095 309.65 316.425 309.272 316.697C308.895 316.965 308.417 317.099 307.841 317.099C307.363 317.099 306.939 316.995 306.568 316.786C306.197 316.574 305.905 316.256 305.693 315.832C305.481 315.404 305.375 314.866 305.375 314.216V309.364H306.548V314.136C306.548 314.693 306.704 315.137 307.015 315.469C307.33 315.8 307.731 315.966 308.218 315.966C308.51 315.966 308.807 315.891 309.108 315.742C309.413 315.593 309.668 315.364 309.874 315.056C310.083 314.748 310.187 314.355 310.187 313.878ZM316.83 309.364V310.358H312.873V309.364H316.83ZM314.026 307.534H315.2V314.812C315.2 315.144 315.248 315.393 315.344 315.558C315.443 315.721 315.569 315.83 315.722 315.886C315.878 315.939 316.042 315.966 316.214 315.966C316.343 315.966 316.449 315.959 316.532 315.946C316.615 315.929 316.681 315.916 316.731 315.906L316.97 316.96C316.89 316.99 316.779 317.02 316.637 317.05C316.494 317.083 316.313 317.099 316.095 317.099C315.763 317.099 315.438 317.028 315.12 316.886C314.805 316.743 314.544 316.526 314.335 316.234C314.129 315.943 314.026 315.575 314.026 315.131V307.534Z" fill="#DE0707"/>
<path d="M38 319.784H317.526V320.739H38V319.784Z" fill="#DE0707"/>
<line x1="172" y1="87.5" x2="409" y2="87.5" stroke="#050448" stroke-opacity="0.5"/>
<line x1="284" y1="148.5" x2="435" y2="148.5" stroke="#050448" stroke-opacity="0.5"/>
<rect x="322" y="182" width="143" height="42" rx="8" fill="url(#paint2_linear_7_86)"/>
<path d="M349.303 210H346.49L351.611 195.455H354.864L359.991 210H357.179L353.294 198.438H353.18L349.303 210ZM349.395 204.297H357.065V206.413H349.395V204.297ZM365.51 210.192C364.653 210.192 363.886 209.972 363.209 209.531C362.532 209.091 361.997 208.452 361.604 207.614C361.211 206.776 361.014 205.758 361.014 204.56C361.014 203.348 361.213 202.325 361.611 201.491C362.013 200.653 362.555 200.021 363.237 199.595C363.919 199.164 364.679 198.949 365.517 198.949C366.156 198.949 366.682 199.058 367.094 199.276C367.506 199.489 367.832 199.747 368.074 200.05C368.315 200.348 368.502 200.63 368.635 200.895H368.741V195.455H371.32V210H368.791V208.281H368.635C368.502 208.546 368.311 208.828 368.06 209.126C367.809 209.42 367.477 209.671 367.065 209.879C366.653 210.088 366.135 210.192 365.51 210.192ZM366.227 208.082C366.772 208.082 367.236 207.936 367.619 207.642C368.003 207.344 368.294 206.929 368.493 206.399C368.692 205.869 368.791 205.251 368.791 204.545C368.791 203.84 368.692 203.227 368.493 202.706C368.299 202.185 368.01 201.78 367.626 201.491C367.248 201.203 366.781 201.058 366.227 201.058C365.654 201.058 365.176 201.207 364.793 201.506C364.409 201.804 364.12 202.216 363.926 202.741C363.732 203.267 363.635 203.868 363.635 204.545C363.635 205.227 363.732 205.836 363.926 206.371C364.125 206.901 364.416 207.32 364.8 207.628C365.188 207.931 365.664 208.082 366.227 208.082ZM378.108 210.192C377.251 210.192 376.484 209.972 375.806 209.531C375.129 209.091 374.594 208.452 374.201 207.614C373.808 206.776 373.612 205.758 373.612 204.56C373.612 203.348 373.811 202.325 374.208 201.491C374.611 200.653 375.153 200.021 375.835 199.595C376.517 199.164 377.277 198.949 378.115 198.949C378.754 198.949 379.279 199.058 379.691 199.276C380.103 199.489 380.43 199.747 380.672 200.05C380.913 200.348 381.1 200.63 381.233 200.895H381.339V195.455H383.917V210H381.389V208.281H381.233C381.1 208.546 380.908 208.828 380.657 209.126C380.406 209.42 380.075 209.671 379.663 209.879C379.251 210.088 378.733 210.192 378.108 210.192ZM378.825 208.082C379.369 208.082 379.833 207.936 380.217 207.642C380.6 207.344 380.892 206.929 381.091 206.399C381.289 205.869 381.389 205.251 381.389 204.545C381.389 203.84 381.289 203.227 381.091 202.706C380.896 202.185 380.608 201.78 380.224 201.491C379.845 201.203 379.379 201.058 378.825 201.058C378.252 201.058 377.774 201.207 377.39 201.506C377.007 201.804 376.718 202.216 376.524 202.741C376.33 203.267 376.233 203.868 376.233 204.545C376.233 205.227 376.33 205.836 376.524 206.371C376.723 206.901 377.014 207.32 377.397 207.628C377.786 207.931 378.261 208.082 378.825 208.082ZM403.685 195.455V210H401.341L394.487 200.092H394.366V210H391.732V195.455H394.089L400.936 205.369H401.064V195.455H403.685ZM411.201 210.213C410.135 210.213 409.212 209.979 408.431 209.51C407.65 209.041 407.043 208.385 406.613 207.543C406.186 206.7 405.973 205.715 405.973 204.588C405.973 203.461 406.186 202.474 406.613 201.626C407.043 200.779 407.65 200.121 408.431 199.652C409.212 199.183 410.135 198.949 411.201 198.949C412.266 198.949 413.189 199.183 413.971 199.652C414.752 200.121 415.355 200.779 415.782 201.626C416.212 202.474 416.428 203.461 416.428 204.588C416.428 205.715 416.212 206.7 415.782 207.543C415.355 208.385 414.752 209.041 413.971 209.51C413.189 209.979 412.266 210.213 411.201 210.213ZM411.215 208.153C411.792 208.153 412.275 207.995 412.664 207.678C413.052 207.356 413.341 206.925 413.53 206.385C413.724 205.845 413.821 205.244 413.821 204.581C413.821 203.913 413.724 203.31 413.53 202.77C413.341 202.225 413.052 201.792 412.664 201.47C412.275 201.148 411.792 200.987 411.215 200.987C410.623 200.987 410.131 201.148 409.738 201.47C409.349 201.792 409.058 202.225 408.864 202.77C408.675 203.31 408.58 203.913 408.58 204.581C408.58 205.244 408.675 205.845 408.864 206.385C409.058 206.925 409.349 207.356 409.738 207.678C410.131 207.995 410.623 208.153 411.215 208.153ZM422.658 210.192C421.801 210.192 421.034 209.972 420.357 209.531C419.68 209.091 419.145 208.452 418.752 207.614C418.359 206.776 418.163 205.758 418.163 204.56C418.163 203.348 418.362 202.325 418.759 201.491C419.162 200.653 419.704 200.021 420.386 199.595C421.067 199.164 421.827 198.949 422.665 198.949C423.305 198.949 423.83 199.058 424.242 199.276C424.654 199.489 424.981 199.747 425.222 200.05C425.464 200.348 425.651 200.63 425.783 200.895H425.89V195.455H428.468V210H425.94V208.281H425.783C425.651 208.546 425.459 208.828 425.208 209.126C424.957 209.42 424.626 209.671 424.214 209.879C423.802 210.088 423.283 210.192 422.658 210.192ZM423.376 208.082C423.92 208.082 424.384 207.936 424.768 207.642C425.151 207.344 425.442 206.929 425.641 206.399C425.84 205.869 425.94 205.251 425.94 204.545C425.94 203.84 425.84 203.227 425.641 202.706C425.447 202.185 425.158 201.78 424.775 201.491C424.396 201.203 423.93 201.058 423.376 201.058C422.803 201.058 422.325 201.207 421.941 201.506C421.558 201.804 421.269 202.216 421.075 202.741C420.88 203.267 420.783 203.868 420.783 204.545C420.783 205.227 420.88 205.836 421.075 206.371C421.273 206.901 421.565 207.32 421.948 207.628C422.336 207.931 422.812 208.082 423.376 208.082ZM436.037 210.213C434.944 210.213 433.999 209.986 433.203 209.531C432.413 209.072 431.804 208.423 431.378 207.585C430.952 206.742 430.739 205.75 430.739 204.609C430.739 203.487 430.952 202.502 431.378 201.655C431.809 200.803 432.41 200.14 433.182 199.666C433.954 199.188 434.861 198.949 435.902 198.949C436.575 198.949 437.209 199.058 437.806 199.276C438.407 199.489 438.937 199.82 439.397 200.27C439.861 200.72 440.225 201.293 440.49 201.989C440.756 202.68 440.888 203.504 440.888 204.46V205.249H431.946V203.516H438.424C438.419 203.023 438.312 202.585 438.104 202.202C437.896 201.813 437.605 201.508 437.23 201.286C436.861 201.063 436.43 200.952 435.938 200.952C435.412 200.952 434.951 201.08 434.553 201.335C434.155 201.586 433.845 201.918 433.623 202.33C433.405 202.737 433.293 203.184 433.289 203.672V205.185C433.289 205.819 433.405 206.364 433.637 206.818C433.869 207.268 434.193 207.614 434.61 207.855C435.026 208.092 435.514 208.21 436.073 208.21C436.447 208.21 436.785 208.158 437.088 208.054C437.391 207.945 437.654 207.786 437.877 207.578C438.099 207.37 438.267 207.112 438.381 206.804L440.782 207.074C440.63 207.708 440.341 208.262 439.915 208.736C439.494 209.205 438.954 209.569 438.296 209.83C437.638 210.085 436.885 210.213 436.037 210.213Z" fill="white"/>
</g>
<defs>
<filter id="filter0_d_7_86" x="0" y="0" width="538" height="362" filterUnits="userSpaceOnUse" color-interpolation-filters="sRGB">
<feFlood flood-opacity="0" result="BackgroundImageFix"/>
<feColorMatrix in="SourceAlpha" type="matrix" values="0 0 0 0 0 0 0 0 0 0 0 0 0 0 0 0 0 0 127 0" result="hardAlpha"/>
<feOffset dy="4"/>
<feGaussianBlur stdDeviation="7"/>
<feComposite in2="hardAlpha" operator="out"/>
<feColorMatrix type="matrix" values="0 0 0 0 0 0 0 0 0 0 0 0 0 0 0 0 0 0 0.16 0"/>
<feBlend mode="normal" in2="BackgroundImageFix" result="effect1_dropShadow_7_86"/>
<feBlend mode="normal" in="SourceGraphic" in2="effect1_dropShadow_7_86" result="shape"/>
</filter>
<linearGradient id="paint0_linear_7_86" x1="139.368" y1="67.8899" x2="123.825" y2="104.415" gradientUnits="userSpaceOnUse">
<stop stop-color="#515099"/>
<stop offset="1" stop-color="#0077B6"/>
</linearGradient>
<linearGradient id="paint1_linear_7_86" x1="235.583" y1="128.89" x2="226.592" y2="170.067" gradientUnits="userSpaceOnUse">
<stop stop-color="#515099"/>
<stop offset="1" stop-color="#0077B6"/>
</linearGradient>
<linearGradient id="paint2_linear_7_86" x1="444.845" y1="180.057" x2="411.169" y2="234.858" gradientUnits="userSpaceOnUse">
<stop stop-color="#515099"/>
<stop offset="1" stop-color="#0077B6"/>
</linearGradient>
</defs>
</svg>
