<svg width="53" height="41" viewBox="0 0 53 41" fill="none" xmlns="http://www.w3.org/2000/svg">
<path d="M44.8447 3.40735C41.4879 1.81902 37.8535 0.666193 34.0677 0.00011784C34.0345 -0.000959674 34.0015 0.00536313 33.971 0.0186418C33.9405 0.0319205 33.9132 0.0518326 33.8911 0.0769733C33.4368 0.922377 32.9067 2.02396 32.5534 2.86937C28.5379 2.25453 24.4543 2.25453 20.4388 2.86937C20.0854 1.99834 19.5554 0.922377 19.0759 0.0769733C19.0507 0.0257367 18.9749 0.00011784 18.8992 0.00011784C15.1134 0.666193 11.5043 1.81902 8.12226 3.40735C8.09702 3.40735 8.07178 3.43297 8.04654 3.45859C1.18159 13.8852 -0.71132 24.0301 0.222515 34.0724C0.222515 34.1237 0.247754 34.1749 0.298232 34.2005C4.84121 37.5822 9.20752 39.6316 13.5234 40.9894C13.5991 41.015 13.6748 40.9894 13.7 40.9381C14.7096 39.5291 15.6182 38.0433 16.4006 36.4806C16.4511 36.3781 16.4006 36.2756 16.2996 36.25C14.861 35.6864 13.4981 35.0203 12.1605 34.2518C12.0595 34.2005 12.0595 34.0468 12.1352 33.97C12.4129 33.765 12.6905 33.5345 12.9681 33.3295C13.0186 33.2783 13.0943 33.2783 13.1448 33.3039C21.8269 37.326 31.1905 37.326 39.7717 33.3039C39.8222 33.2783 39.8979 33.2783 39.9484 33.3295C40.226 33.5601 40.5036 33.765 40.7812 33.9956C40.8822 34.0724 40.8822 34.2262 40.756 34.2774C39.4436 35.0716 38.0555 35.712 36.6168 36.2756C36.5159 36.3012 36.4907 36.4293 36.5159 36.5062C37.3235 38.0689 38.2321 39.5548 39.2164 40.9638C39.2922 40.9894 39.3679 41.015 39.4436 40.9894C43.7847 39.6316 48.151 37.5822 52.694 34.2005C52.7444 34.1749 52.7697 34.1237 52.7697 34.0724C53.8802 22.4674 50.9272 12.3994 44.9456 3.45859C44.9204 3.43297 44.8952 3.40735 44.8447 3.40735ZM17.713 27.9497C15.1134 27.9497 12.9429 25.5159 12.9429 22.5186C12.9429 19.5213 15.0629 17.0875 17.713 17.0875C20.3883 17.0875 22.5084 19.5469 22.4831 22.5186C22.4831 25.5159 20.3631 27.9497 17.713 27.9497ZM35.3044 27.9497C32.7048 27.9497 30.5343 25.5159 30.5343 22.5186C30.5343 19.5213 32.6544 17.0875 35.3044 17.0875C37.9797 17.0875 40.0998 19.5469 40.0746 22.5186C40.0746 25.5159 37.9797 27.9497 35.3044 27.9497Z" fill="url(#paint0_linear_2_47)"/>
<defs>
<linearGradient id="paint0_linear_2_47" x1="45.5299" y1="-1.89647" x2="12.5762" y2="18.4634" gradientUnits="userSpaceOnUse">
<stop stop-color="#515099"/>
<stop offset="1" stop-color="#0077B6"/>
</linearGradient>
</defs>
</svg>
