<svg width="351" height="466" viewBox="0 0 351 466" fill="none" xmlns="http://www.w3.org/2000/svg">
<path d="M350.401 432.935C316.357 452.959 277.773 463.98 238.29 464.958C198.806 465.937 159.723 456.84 124.729 438.528C89.7351 420.215 59.983 393.29 38.2793 360.292C16.5757 327.293 3.63607 289.31 0.681043 249.925C-2.27396 210.539 4.85308 171.05 21.3899 135.183C37.9266 99.3155 63.328 68.252 95.1977 44.9227C127.067 21.5934 164.355 6.76747 203.543 1.84338C242.731 -3.08071 282.527 2.0594 319.178 16.7788L318.311 18.9363C282.027 4.36409 242.629 -0.724615 203.833 4.15023C165.037 9.02509 128.122 23.7028 96.5711 46.7988C65.02 69.8948 39.8727 100.648 23.5013 136.156C7.12984 171.665 0.0740695 210.759 2.99953 249.751C5.92499 288.742 18.7352 326.346 40.2218 359.014C61.7085 391.682 91.1631 418.338 125.807 436.468C160.451 454.597 199.143 463.602 238.232 462.634C277.321 461.665 315.519 450.754 349.223 430.931L350.401 432.935Z" fill="url(#paint0_linear_2_21)"/>
<defs>
<linearGradient id="paint0_linear_2_21" x1="506.501" y1="100.865" x2="147.71" y2="66.5071" gradientUnits="userSpaceOnUse">
<stop stop-color="#515099"/>
<stop offset="1" stop-color="#0077B6"/>
</linearGradient>
</defs>
</svg>
