<svg width="461" height="397" viewBox="0 0 461 397" fill="none" xmlns="http://www.w3.org/2000/svg">
<path d="M16.9954 292.232C16.9954 292.232 48.7685 364.675 129.103 388.365C209.438 412.055 295.226 380.485 365.33 356.757C435.434 333.029 472.303 272.355 456.684 210.143C441.064 147.932 382.004 152.405 326.922 97.1582C271.841 41.9112 265.562 18.8567 189.231 2.53803C112.899 -13.7806 29.3488 50.4645 8.45483 141.45C-12.4391 232.435 16.9954 292.232 16.9954 292.232Z" fill="url(#paint0_linear_30_189)"/>
<path opacity="0.8" d="M16.9954 292.232C16.9954 292.232 48.7685 364.675 129.103 388.365C209.438 412.055 295.226 380.485 365.33 356.757C435.434 333.029 472.303 272.355 456.684 210.143C441.064 147.932 382.004 152.405 326.922 97.1582C271.841 41.9112 265.562 18.8567 189.231 2.53803C112.899 -13.7806 29.3488 50.4645 8.45483 141.45C-12.4391 232.435 16.9954 292.232 16.9954 292.232Z" fill="white"/>
<defs>
<linearGradient id="paint0_linear_30_189" x1="395.503" y1="-18.3522" x2="93.4068" y2="148.784" gradientUnits="userSpaceOnUse">
<stop stop-color="#515099"/>
<stop offset="1" stop-color="#0077B6"/>
</linearGradient>
</defs>
</svg>
