<svg width="50" height="41" viewBox="0 0 50 41" fill="none" xmlns="http://www.w3.org/2000/svg">
<path d="M50 4.87029C48.1613 5.67088 46.1603 6.24706 44.0993 6.47147C46.2391 5.18832 47.8415 3.16114 48.6059 0.770291C46.598 1.97596 44.3982 2.8214 42.1043 3.26911C41.1456 2.23456 39.986 1.4104 38.6979 0.847969C37.4098 0.285539 36.0207 -0.00310401 34.6172 2.51725e-05C28.9388 2.51725e-05 24.3721 4.64588 24.3721 10.3471C24.3721 11.1477 24.4682 11.9482 24.6244 12.7185C16.1219 12.2697 8.53864 8.16969 3.49718 1.89233C2.57857 3.47602 2.09719 5.27923 2.10311 7.11437C2.10311 10.7049 3.91179 13.8709 6.66987 15.7329C5.04449 15.6682 3.45717 15.2173 2.03701 14.4167V14.5441C2.03701 19.5721 5.55823 23.7388 10.2512 24.6971C9.37002 24.9281 8.46357 25.0463 7.55318 25.0488C6.88619 25.0488 6.25526 24.9821 5.61831 24.8911C6.91624 28.9911 10.6958 31.9691 15.1965 32.0661C11.6753 34.85 7.26475 36.4876 2.47566 36.4876C1.61639 36.4876 0.823218 36.4572 0 36.3602C4.54272 39.3018 9.9327 41 15.7373 41C34.5812 41 44.8924 25.2429 44.8924 11.5661C44.8924 11.1173 44.8924 10.6685 44.8624 10.2197C46.8573 8.74588 48.6059 6.92029 50 4.87029Z" fill="url(#paint0_linear_2_45)"/>
<defs>
<linearGradient id="paint0_linear_2_45" x1="42.9527" y1="-1.89647" x2="10.8899" y2="16.7916" gradientUnits="userSpaceOnUse">
<stop stop-color="#515099"/>
<stop offset="1" stop-color="#0077B6"/>
</linearGradient>
</defs>
</svg>
